<mxfile host="app.diagrams.net" modified="2024-06-22T22:28:37.691Z" agent="Mozilla/5.0 (Windows NT 10.0; Win64; x64) AppleWebKit/537.36 (KHTML, like Gecko) Chrome/126.0.0.0 Safari/537.36" etag="-yo79U2n6nvPy1jS4-3p" version="24.6.2" type="google">
  <diagram name="Page-1" id="kTnyQJ7n323xBP461m6a">
    <mxGraphModel grid="1" page="1" gridSize="10" guides="1" tooltips="1" connect="1" arrows="1" fold="1" pageScale="1" pageWidth="850" pageHeight="1100" math="0" shadow="0">
      <root>
        <mxCell id="0" />
        <mxCell id="1" parent="0" />
        <mxCell id="r4IXp4akksPEYu1bz3kI-22" value="" style="rounded=0;whiteSpace=wrap;html=1;fillColor=#000000;" vertex="1" parent="1">
          <mxGeometry y="1480" width="685" height="645" as="geometry" />
        </mxCell>
        <mxCell id="r4IXp4akksPEYu1bz3kI-83" value="" style="rounded=0;whiteSpace=wrap;html=1;fillColor=#000000;" vertex="1" parent="1">
          <mxGeometry y="2180" width="505" height="650" as="geometry" />
        </mxCell>
        <mxCell id="r4IXp4akksPEYu1bz3kI-90" value="" style="rounded=1;whiteSpace=wrap;html=1;fillColor=none;strokeColor=#FFFFFF;" vertex="1" parent="1">
          <mxGeometry x="145" y="2350" width="230" height="174" as="geometry" />
        </mxCell>
        <mxCell id="r4IXp4akksPEYu1bz3kI-4" value="" style="rounded=0;whiteSpace=wrap;html=1;fillColor=#000000;" vertex="1" parent="1">
          <mxGeometry x="-2.6645352591003757e-15" y="720" width="775" height="695" as="geometry" />
        </mxCell>
        <mxCell id="r4IXp4akksPEYu1bz3kI-6" value="" style="rounded=1;whiteSpace=wrap;html=1;fillColor=none;strokeColor=#FFFFFF;" vertex="1" parent="1">
          <mxGeometry x="318.65" y="1205" width="116.35" height="121.5" as="geometry" />
        </mxCell>
        <mxCell id="Rv99cOJA1Z-F2tT0oBQJ-270" value="" style="rounded=0;whiteSpace=wrap;html=1;fillColor=#000000;" vertex="1" parent="1">
          <mxGeometry width="900" height="680" as="geometry" />
        </mxCell>
        <mxCell id="Rv99cOJA1Z-F2tT0oBQJ-73" value="" style="rounded=1;whiteSpace=wrap;html=1;fillColor=none;strokeColor=#FFFFFF;" vertex="1" parent="1">
          <mxGeometry x="633.65" y="468.5" width="120" height="120" as="geometry" />
        </mxCell>
        <mxCell id="Rv99cOJA1Z-F2tT0oBQJ-27" value="" style="rounded=1;whiteSpace=wrap;html=1;fillColor=none;strokeColor=#FFFFFF;" vertex="1" parent="1">
          <mxGeometry x="540" y="148" width="120" height="192" as="geometry" />
        </mxCell>
        <mxCell id="Rv99cOJA1Z-F2tT0oBQJ-78" value="" style="rounded=1;whiteSpace=wrap;html=1;fillColor=none;strokeColor=#FFFFFF;" vertex="1" parent="1">
          <mxGeometry x="388.15" y="450" width="150" height="130" as="geometry" />
        </mxCell>
        <mxCell id="Rv99cOJA1Z-F2tT0oBQJ-1" value="" style="shape=cylinder3;whiteSpace=wrap;html=1;boundedLbl=1;backgroundOutline=1;size=15;direction=south;fillColor=#CE88E7;strokeColor=#8F67A6;gradientColor=default;gradientDirection=north;" vertex="1" parent="1">
          <mxGeometry x="290" y="150" width="230" height="160" as="geometry" />
        </mxCell>
        <mxCell id="Rv99cOJA1Z-F2tT0oBQJ-4" value="&lt;font color=&quot;#ffffff&quot;&gt;AWS Kinesis Data Stream&lt;/font&gt;" style="text;html=1;align=center;verticalAlign=middle;whiteSpace=wrap;rounded=0;" vertex="1" parent="1">
          <mxGeometry x="350" y="110" width="80" height="30" as="geometry" />
        </mxCell>
        <mxCell id="Rv99cOJA1Z-F2tT0oBQJ-6" value="&lt;b&gt;&lt;font color=&quot;#ffffff&quot;&gt;Shard 1&lt;/font&gt;&lt;/b&gt;" style="rounded=1;whiteSpace=wrap;html=1;fillColor=none;strokeColor=#FFFFFF;" vertex="1" parent="1">
          <mxGeometry x="310" y="160" width="160" height="30" as="geometry" />
        </mxCell>
        <mxCell id="Rv99cOJA1Z-F2tT0oBQJ-24" style="edgeStyle=orthogonalEdgeStyle;rounded=0;orthogonalLoop=1;jettySize=auto;html=1;exitX=1;exitY=0.5;exitDx=0;exitDy=0;strokeColor=#FFFFFF;" edge="1" parent="1" source="Rv99cOJA1Z-F2tT0oBQJ-7" target="Rv99cOJA1Z-F2tT0oBQJ-20">
          <mxGeometry relative="1" as="geometry" />
        </mxCell>
        <mxCell id="Rv99cOJA1Z-F2tT0oBQJ-7" value="&lt;b&gt;&lt;font color=&quot;#ffffff&quot;&gt;Shard 2&lt;/font&gt;&lt;/b&gt;" style="rounded=1;whiteSpace=wrap;html=1;fillColor=none;strokeColor=#FFFFFF;" vertex="1" parent="1">
          <mxGeometry x="310" y="198" width="160" height="30" as="geometry" />
        </mxCell>
        <mxCell id="Rv99cOJA1Z-F2tT0oBQJ-8" value="&lt;b&gt;&lt;font color=&quot;#ffffff&quot;&gt;Shard N&lt;/font&gt;&lt;/b&gt;" style="rounded=1;whiteSpace=wrap;html=1;fillColor=none;strokeColor=#FFFFFF;" vertex="1" parent="1">
          <mxGeometry x="310" y="260" width="160" height="30" as="geometry" />
        </mxCell>
        <mxCell id="Rv99cOJA1Z-F2tT0oBQJ-11" value="" style="sketch=0;points=[[0,0,0],[0.25,0,0],[0.5,0,0],[0.75,0,0],[1,0,0],[0,1,0],[0.25,1,0],[0.5,1,0],[0.75,1,0],[1,1,0],[0,0.25,0],[0,0.5,0],[0,0.75,0],[1,0.25,0],[1,0.5,0],[1,0.75,0]];outlineConnect=0;fontColor=#232F3E;fillColor=#8C4FFF;strokeColor=#ffffff;dashed=0;verticalLabelPosition=bottom;verticalAlign=top;align=center;html=1;fontSize=12;fontStyle=0;aspect=fixed;shape=mxgraph.aws4.resourceIcon;resIcon=mxgraph.aws4.kinesis_data_streams;" vertex="1" parent="1">
          <mxGeometry x="310" y="110" width="30" height="30" as="geometry" />
        </mxCell>
        <mxCell id="Rv99cOJA1Z-F2tT0oBQJ-14" value="" style="shape=ellipse;html=1;dashed=0;whiteSpace=wrap;aspect=fixed;perimeter=ellipsePerimeter;strokeColor=#FFFFFF;" vertex="1" parent="1">
          <mxGeometry x="385" y="230" width="10" height="10" as="geometry" />
        </mxCell>
        <mxCell id="Rv99cOJA1Z-F2tT0oBQJ-15" value="" style="shape=ellipse;html=1;dashed=0;whiteSpace=wrap;aspect=fixed;perimeter=ellipsePerimeter;strokeColor=#FFFFFF;" vertex="1" parent="1">
          <mxGeometry x="385" y="245" width="10" height="10" as="geometry" />
        </mxCell>
        <mxCell id="Rv99cOJA1Z-F2tT0oBQJ-19" value="" style="outlineConnect=0;dashed=0;verticalLabelPosition=bottom;verticalAlign=top;align=center;html=1;shape=mxgraph.aws3.lambda_function;fillColor=#F58534;gradientColor=none;" vertex="1" parent="1">
          <mxGeometry x="580" y="157.5" width="40" height="35" as="geometry" />
        </mxCell>
        <mxCell id="Rv99cOJA1Z-F2tT0oBQJ-20" value="" style="outlineConnect=0;dashed=0;verticalLabelPosition=bottom;verticalAlign=top;align=center;html=1;shape=mxgraph.aws3.lambda_function;fillColor=#F58534;gradientColor=none;" vertex="1" parent="1">
          <mxGeometry x="580" y="196" width="40" height="35" as="geometry" />
        </mxCell>
        <mxCell id="Rv99cOJA1Z-F2tT0oBQJ-22" value="" style="outlineConnect=0;dashed=0;verticalLabelPosition=bottom;verticalAlign=top;align=center;html=1;shape=mxgraph.aws3.lambda_function;fillColor=#F58534;gradientColor=none;" vertex="1" parent="1">
          <mxGeometry x="580" y="257" width="40" height="35" as="geometry" />
        </mxCell>
        <mxCell id="Rv99cOJA1Z-F2tT0oBQJ-23" style="edgeStyle=orthogonalEdgeStyle;rounded=0;orthogonalLoop=1;jettySize=auto;html=1;exitX=1;exitY=0.5;exitDx=0;exitDy=0;entryX=0;entryY=0.5;entryDx=0;entryDy=0;entryPerimeter=0;strokeColor=#FFFFFF;" edge="1" parent="1" source="Rv99cOJA1Z-F2tT0oBQJ-6" target="Rv99cOJA1Z-F2tT0oBQJ-19">
          <mxGeometry relative="1" as="geometry" />
        </mxCell>
        <mxCell id="Rv99cOJA1Z-F2tT0oBQJ-25" style="edgeStyle=orthogonalEdgeStyle;rounded=0;orthogonalLoop=1;jettySize=auto;html=1;exitX=1;exitY=0.5;exitDx=0;exitDy=0;entryX=0;entryY=0.5;entryDx=0;entryDy=0;entryPerimeter=0;strokeColor=#FFFFFF;" edge="1" parent="1" source="Rv99cOJA1Z-F2tT0oBQJ-8" target="Rv99cOJA1Z-F2tT0oBQJ-22">
          <mxGeometry relative="1" as="geometry" />
        </mxCell>
        <mxCell id="Rv99cOJA1Z-F2tT0oBQJ-28" value="AWS Lambda Consumer" style="text;html=1;align=center;verticalAlign=middle;whiteSpace=wrap;rounded=0;fontColor=#FFFFFF;" vertex="1" parent="1">
          <mxGeometry x="555.5" y="310" width="89" height="30" as="geometry" />
        </mxCell>
        <mxCell id="Rv99cOJA1Z-F2tT0oBQJ-29" value="" style="sketch=0;points=[[0,0,0],[0.25,0,0],[0.5,0,0],[0.75,0,0],[1,0,0],[0,1,0],[0.25,1,0],[0.5,1,0],[0.75,1,0],[1,1,0],[0,0.25,0],[0,0.5,0],[0,0.75,0],[1,0.25,0],[1,0.5,0],[1,0.75,0]];outlineConnect=0;fontColor=#232F3E;fillColor=#ED7100;strokeColor=#ffffff;dashed=0;verticalLabelPosition=bottom;verticalAlign=top;align=center;html=1;fontSize=12;fontStyle=0;aspect=fixed;shape=mxgraph.aws4.resourceIcon;resIcon=mxgraph.aws4.ec2;" vertex="1" parent="1">
          <mxGeometry x="180" y="198" width="64" height="64" as="geometry" />
        </mxCell>
        <mxCell id="Rv99cOJA1Z-F2tT0oBQJ-38" value="" style="endArrow=classic;html=1;rounded=0;entryX=0;entryY=0.5;entryDx=0;entryDy=0;strokeColor=#FFFFFF;exitX=1;exitY=0.5;exitDx=0;exitDy=0;" edge="1" parent="1" source="Rv99cOJA1Z-F2tT0oBQJ-42" target="Rv99cOJA1Z-F2tT0oBQJ-7">
          <mxGeometry width="50" height="50" relative="1" as="geometry">
            <mxPoint x="260" y="180" as="sourcePoint" />
            <mxPoint x="310" y="130" as="targetPoint" />
          </mxGeometry>
        </mxCell>
        <mxCell id="Rv99cOJA1Z-F2tT0oBQJ-40" value="" style="endArrow=classic;html=1;rounded=0;entryX=0;entryY=0.5;entryDx=0;entryDy=0;strokeColor=#FFFFFF;exitX=1;exitY=0.5;exitDx=0;exitDy=0;" edge="1" parent="1" source="Rv99cOJA1Z-F2tT0oBQJ-42">
          <mxGeometry width="50" height="50" relative="1" as="geometry">
            <mxPoint x="244" y="230" as="sourcePoint" />
            <mxPoint x="310" y="275" as="targetPoint" />
          </mxGeometry>
        </mxCell>
        <mxCell id="Rv99cOJA1Z-F2tT0oBQJ-41" value="" style="endArrow=classic;html=1;rounded=0;entryX=0;entryY=0.5;entryDx=0;entryDy=0;strokeColor=#FFFFFF;exitX=1;exitY=0.5;exitDx=0;exitDy=0;" edge="1" parent="1" source="Rv99cOJA1Z-F2tT0oBQJ-42" target="Rv99cOJA1Z-F2tT0oBQJ-6">
          <mxGeometry width="50" height="50" relative="1" as="geometry">
            <mxPoint x="250" y="230" as="sourcePoint" />
            <mxPoint x="246" y="325" as="targetPoint" />
          </mxGeometry>
        </mxCell>
        <mxCell id="Rv99cOJA1Z-F2tT0oBQJ-42" value="" style="rounded=1;whiteSpace=wrap;html=1;fillColor=none;strokeColor=#FFFFFF;" vertex="1" parent="1">
          <mxGeometry x="160" y="150" width="100" height="180" as="geometry" />
        </mxCell>
        <mxCell id="Rv99cOJA1Z-F2tT0oBQJ-45" value="&lt;font color=&quot;#ffffff&quot;&gt;EC2 Producer&lt;/font&gt;" style="text;html=1;align=center;verticalAlign=middle;whiteSpace=wrap;rounded=0;" vertex="1" parent="1">
          <mxGeometry x="182" y="290" width="60" height="30" as="geometry" />
        </mxCell>
        <mxCell id="Rv99cOJA1Z-F2tT0oBQJ-48" value="" style="shape=card;whiteSpace=wrap;html=1;size=20;" vertex="1" parent="1">
          <mxGeometry x="20" y="120" width="40" height="40" as="geometry" />
        </mxCell>
        <mxCell id="Rv99cOJA1Z-F2tT0oBQJ-52" value="" style="shape=card;whiteSpace=wrap;html=1;size=20;" vertex="1" parent="1">
          <mxGeometry x="20" y="170" width="40" height="40" as="geometry" />
        </mxCell>
        <mxCell id="Rv99cOJA1Z-F2tT0oBQJ-53" value="" style="shape=card;whiteSpace=wrap;html=1;size=20;" vertex="1" parent="1">
          <mxGeometry x="20" y="220" width="40" height="40" as="geometry" />
        </mxCell>
        <mxCell id="Rv99cOJA1Z-F2tT0oBQJ-54" value="" style="shape=card;whiteSpace=wrap;html=1;size=20;" vertex="1" parent="1">
          <mxGeometry x="20" y="300" width="40" height="40" as="geometry" />
        </mxCell>
        <mxCell id="Rv99cOJA1Z-F2tT0oBQJ-56" value="" style="shape=ellipse;html=1;dashed=0;whiteSpace=wrap;aspect=fixed;perimeter=ellipsePerimeter;strokeColor=#FFFFFF;" vertex="1" parent="1">
          <mxGeometry x="35" y="282" width="10" height="10" as="geometry" />
        </mxCell>
        <mxCell id="Rv99cOJA1Z-F2tT0oBQJ-60" value="" style="shape=ellipse;html=1;dashed=0;whiteSpace=wrap;aspect=fixed;perimeter=ellipsePerimeter;strokeColor=#FFFFFF;" vertex="1" parent="1">
          <mxGeometry x="35" y="266" width="10" height="10" as="geometry" />
        </mxCell>
        <mxCell id="Rv99cOJA1Z-F2tT0oBQJ-62" value="" style="endArrow=classic;html=1;rounded=0;fontColor=#FFFFFF;exitX=1;exitY=0.5;exitDx=0;exitDy=0;exitPerimeter=0;strokeColor=#FFFFFF;entryX=0;entryY=0.5;entryDx=0;entryDy=0;" edge="1" parent="1" source="Rv99cOJA1Z-F2tT0oBQJ-48" target="Rv99cOJA1Z-F2tT0oBQJ-42">
          <mxGeometry width="50" height="50" relative="1" as="geometry">
            <mxPoint x="560" y="220" as="sourcePoint" />
            <mxPoint x="610" y="170" as="targetPoint" />
          </mxGeometry>
        </mxCell>
        <mxCell id="Rv99cOJA1Z-F2tT0oBQJ-63" value="" style="endArrow=classic;html=1;rounded=0;fontColor=#FFFFFF;exitX=1;exitY=0.5;exitDx=0;exitDy=0;exitPerimeter=0;strokeColor=#FFFFFF;entryX=0;entryY=0.5;entryDx=0;entryDy=0;" edge="1" parent="1" source="Rv99cOJA1Z-F2tT0oBQJ-52" target="Rv99cOJA1Z-F2tT0oBQJ-42">
          <mxGeometry width="50" height="50" relative="1" as="geometry">
            <mxPoint x="70" y="150" as="sourcePoint" />
            <mxPoint x="170" y="250" as="targetPoint" />
          </mxGeometry>
        </mxCell>
        <mxCell id="Rv99cOJA1Z-F2tT0oBQJ-64" value="" style="endArrow=classic;html=1;rounded=0;fontColor=#FFFFFF;exitX=1;exitY=0.5;exitDx=0;exitDy=0;exitPerimeter=0;strokeColor=#FFFFFF;entryX=0;entryY=0.5;entryDx=0;entryDy=0;" edge="1" parent="1" source="Rv99cOJA1Z-F2tT0oBQJ-53" target="Rv99cOJA1Z-F2tT0oBQJ-42">
          <mxGeometry width="50" height="50" relative="1" as="geometry">
            <mxPoint x="70" y="200" as="sourcePoint" />
            <mxPoint x="170" y="250" as="targetPoint" />
          </mxGeometry>
        </mxCell>
        <mxCell id="Rv99cOJA1Z-F2tT0oBQJ-65" value="" style="endArrow=classic;html=1;rounded=0;fontColor=#FFFFFF;exitX=1;exitY=0.5;exitDx=0;exitDy=0;exitPerimeter=0;strokeColor=#FFFFFF;entryX=0;entryY=0.5;entryDx=0;entryDy=0;" edge="1" parent="1" source="Rv99cOJA1Z-F2tT0oBQJ-54" target="Rv99cOJA1Z-F2tT0oBQJ-42">
          <mxGeometry width="50" height="50" relative="1" as="geometry">
            <mxPoint x="70" y="250" as="sourcePoint" />
            <mxPoint x="170" y="250" as="targetPoint" />
          </mxGeometry>
        </mxCell>
        <mxCell id="Rv99cOJA1Z-F2tT0oBQJ-67" value="Data Source" style="text;html=1;align=center;verticalAlign=middle;whiteSpace=wrap;rounded=0;fontColor=#FFFFFF;" vertex="1" parent="1">
          <mxGeometry x="10" y="360" width="60" height="30" as="geometry" />
        </mxCell>
        <mxCell id="Rv99cOJA1Z-F2tT0oBQJ-68" value="" style="outlineConnect=0;dashed=0;verticalLabelPosition=bottom;verticalAlign=top;align=center;html=1;shape=mxgraph.aws3.dynamo_db;fillColor=#2E73B8;gradientColor=none;" vertex="1" parent="1">
          <mxGeometry x="668.15" y="490" width="46" height="50" as="geometry" />
        </mxCell>
        <mxCell id="Rv99cOJA1Z-F2tT0oBQJ-70" value="" style="endArrow=classic;html=1;rounded=0;strokeColor=#FFFFFF;exitX=0.5;exitY=1;exitDx=0;exitDy=0;entryX=0.5;entryY=0;entryDx=0;entryDy=0;entryPerimeter=0;fontColor=#FFFFFF;labelBackgroundColor=none;" edge="1" parent="1" source="Rv99cOJA1Z-F2tT0oBQJ-28" target="Rv99cOJA1Z-F2tT0oBQJ-68">
          <mxGeometry width="50" height="50" relative="1" as="geometry">
            <mxPoint x="238.14999999999998" y="400" as="sourcePoint" />
            <mxPoint x="248.14999999999998" y="320" as="targetPoint" />
            <Array as="points">
              <mxPoint x="600" y="420" />
              <mxPoint x="691.15" y="420" />
            </Array>
          </mxGeometry>
        </mxCell>
        <mxCell id="Rv99cOJA1Z-F2tT0oBQJ-72" value="Dynamo DB" style="text;html=1;align=center;verticalAlign=middle;whiteSpace=wrap;rounded=0;fontColor=#FFFFFF;" vertex="1" parent="1">
          <mxGeometry x="658.65" y="540" width="70" height="30" as="geometry" />
        </mxCell>
        <mxCell id="Rv99cOJA1Z-F2tT0oBQJ-74" value="Temporary Storage" style="text;html=1;align=center;verticalAlign=middle;whiteSpace=wrap;rounded=0;fontColor=#FFFFFF;" vertex="1" parent="1">
          <mxGeometry x="638.65" y="560" width="110" height="30" as="geometry" />
        </mxCell>
        <mxCell id="Rv99cOJA1Z-F2tT0oBQJ-75" value="" style="sketch=0;points=[[0,0,0],[0.25,0,0],[0.5,0,0],[0.75,0,0],[1,0,0],[0,1,0],[0.25,1,0],[0.5,1,0],[0.75,1,0],[1,1,0],[0,0.25,0],[0,0.5,0],[0,0.75,0],[1,0.25,0],[1,0.5,0],[1,0.75,0]];outlineConnect=0;fontColor=#232F3E;fillColor=#E7157B;strokeColor=#ffffff;dashed=0;verticalLabelPosition=bottom;verticalAlign=top;align=center;html=1;fontSize=12;fontStyle=0;aspect=fixed;shape=mxgraph.aws4.resourceIcon;resIcon=mxgraph.aws4.eventbridge;" vertex="1" parent="1">
          <mxGeometry x="395.65" y="460" width="35" height="35" as="geometry" />
        </mxCell>
        <mxCell id="Rv99cOJA1Z-F2tT0oBQJ-76" value="&lt;font color=&quot;#ffffff&quot;&gt;EventBridge Scheduler&lt;/font&gt;" style="text;html=1;align=center;verticalAlign=middle;whiteSpace=wrap;rounded=0;" vertex="1" parent="1">
          <mxGeometry x="435.65" y="461" width="60" height="30" as="geometry" />
        </mxCell>
        <mxCell id="Rv99cOJA1Z-F2tT0oBQJ-81" style="edgeStyle=orthogonalEdgeStyle;rounded=0;orthogonalLoop=1;jettySize=auto;html=1;exitX=1;exitY=0.5;exitDx=0;exitDy=0;exitPerimeter=0;entryX=0;entryY=0.5;entryDx=0;entryDy=0;strokeColor=#FFFFFF;" edge="1" parent="1" source="Rv99cOJA1Z-F2tT0oBQJ-79" target="Rv99cOJA1Z-F2tT0oBQJ-73">
          <mxGeometry relative="1" as="geometry" />
        </mxCell>
        <mxCell id="Rv99cOJA1Z-F2tT0oBQJ-82" value="Check for fails" style="edgeLabel;html=1;align=center;verticalAlign=middle;resizable=0;points=[];fontColor=#FFFFFF;labelBackgroundColor=none;" connectable="0" vertex="1" parent="Rv99cOJA1Z-F2tT0oBQJ-81">
          <mxGeometry x="0.3077" y="1" relative="1" as="geometry">
            <mxPoint x="-15" y="12" as="offset" />
          </mxGeometry>
        </mxCell>
        <mxCell id="Rv99cOJA1Z-F2tT0oBQJ-79" value="" style="outlineConnect=0;dashed=0;verticalLabelPosition=bottom;verticalAlign=top;align=center;html=1;shape=mxgraph.aws3.lambda_function;fillColor=#F58534;gradientColor=none;" vertex="1" parent="1">
          <mxGeometry x="439.9" y="504.25" width="65" height="50" as="geometry" />
        </mxCell>
        <mxCell id="Rv99cOJA1Z-F2tT0oBQJ-85" value="" style="sketch=0;points=[[0,0,0],[0.25,0,0],[0.5,0,0],[0.75,0,0],[1,0,0],[0,1,0],[0.25,1,0],[0.5,1,0],[0.75,1,0],[1,1,0],[0,0.25,0],[0,0.5,0],[0,0.75,0],[1,0.25,0],[1,0.5,0],[1,0.75,0]];outlineConnect=0;fontColor=#232F3E;fillColor=#E7157B;strokeColor=#ffffff;dashed=0;verticalLabelPosition=bottom;verticalAlign=top;align=center;html=1;fontSize=12;fontStyle=0;aspect=fixed;shape=mxgraph.aws4.resourceIcon;resIcon=mxgraph.aws4.sns;" vertex="1" parent="1">
          <mxGeometry x="275.65" y="494" width="69" height="69" as="geometry" />
        </mxCell>
        <mxCell id="Rv99cOJA1Z-F2tT0oBQJ-89" value="&lt;font color=&quot;#ffffff&quot;&gt;Aws SNS&lt;/font&gt;" style="text;html=1;align=center;verticalAlign=middle;whiteSpace=wrap;rounded=0;" vertex="1" parent="1">
          <mxGeometry x="280.15" y="563" width="60" height="30" as="geometry" />
        </mxCell>
        <mxCell id="Rv99cOJA1Z-F2tT0oBQJ-92" value="" style="outlineConnect=0;dashed=0;verticalLabelPosition=bottom;verticalAlign=top;align=center;html=1;shape=mxgraph.aws3.email;fillColor=#D9A741;gradientColor=none;" vertex="1" parent="1">
          <mxGeometry x="135.64999999999998" y="498.5" width="81" height="61.5" as="geometry" />
        </mxCell>
        <mxCell id="Rv99cOJA1Z-F2tT0oBQJ-93" style="edgeStyle=orthogonalEdgeStyle;rounded=0;orthogonalLoop=1;jettySize=auto;html=1;exitX=0;exitY=0.5;exitDx=0;exitDy=0;exitPerimeter=0;entryX=1;entryY=0.5;entryDx=0;entryDy=0;entryPerimeter=0;strokeColor=#FFFFFF;" edge="1" parent="1" source="Rv99cOJA1Z-F2tT0oBQJ-85" target="Rv99cOJA1Z-F2tT0oBQJ-92">
          <mxGeometry relative="1" as="geometry" />
        </mxCell>
        <mxCell id="Rv99cOJA1Z-F2tT0oBQJ-94" value="Push fail msg" style="edgeLabel;html=1;align=center;verticalAlign=middle;resizable=0;points=[];fontColor=#FFFFFF;labelBackgroundColor=none;" connectable="0" vertex="1" parent="1">
          <mxGeometry x="394.65" y="539" as="geometry" />
        </mxCell>
        <mxCell id="Rv99cOJA1Z-F2tT0oBQJ-95" value="&lt;font color=&quot;#ffffff&quot;&gt;Email Authorities&lt;/font&gt;" style="text;html=1;align=center;verticalAlign=middle;whiteSpace=wrap;rounded=0;fontColor=#000000;" vertex="1" parent="1">
          <mxGeometry x="150.14999999999998" y="559" width="60" height="30" as="geometry" />
        </mxCell>
        <mxCell id="Rv99cOJA1Z-F2tT0oBQJ-106" style="edgeStyle=orthogonalEdgeStyle;rounded=0;orthogonalLoop=1;jettySize=auto;html=1;exitX=0;exitY=0.5;exitDx=0;exitDy=0;exitPerimeter=0;entryX=1;entryY=0.5;entryDx=0;entryDy=0;entryPerimeter=0;strokeColor=#FFFFFF;" edge="1" parent="1" source="Rv99cOJA1Z-F2tT0oBQJ-79" target="Rv99cOJA1Z-F2tT0oBQJ-85">
          <mxGeometry relative="1" as="geometry" />
        </mxCell>
        <mxCell id="Rv99cOJA1Z-F2tT0oBQJ-259" style="edgeStyle=orthogonalEdgeStyle;rounded=0;orthogonalLoop=1;jettySize=auto;html=1;exitX=1;exitY=0.5;exitDx=0;exitDy=0;exitPerimeter=0;" edge="1" parent="1" source="Rv99cOJA1Z-F2tT0oBQJ-109" target="Rv99cOJA1Z-F2tT0oBQJ-252">
          <mxGeometry relative="1" as="geometry" />
        </mxCell>
        <mxCell id="Rv99cOJA1Z-F2tT0oBQJ-109" value="" style="outlineConnect=0;dashed=0;verticalLabelPosition=bottom;verticalAlign=top;align=center;html=1;shape=mxgraph.aws3.lambda_function;fillColor=#F58534;gradientColor=none;" vertex="1" parent="1">
          <mxGeometry x="690" y="205" width="60" height="55" as="geometry" />
        </mxCell>
        <mxCell id="Rv99cOJA1Z-F2tT0oBQJ-111" style="edgeStyle=orthogonalEdgeStyle;rounded=0;orthogonalLoop=1;jettySize=auto;html=1;exitX=1;exitY=0.5;exitDx=0;exitDy=0;exitPerimeter=0;entryX=0;entryY=0.5;entryDx=0;entryDy=0;entryPerimeter=0;" edge="1" parent="1" source="Rv99cOJA1Z-F2tT0oBQJ-22" target="Rv99cOJA1Z-F2tT0oBQJ-109">
          <mxGeometry relative="1" as="geometry" />
        </mxCell>
        <mxCell id="Rv99cOJA1Z-F2tT0oBQJ-114" value="" style="endArrow=classic;html=1;rounded=0;strokeColor=#FFFFFF;exitX=1;exitY=0.5;exitDx=0;exitDy=0;exitPerimeter=0;entryX=0;entryY=0.5;entryDx=0;entryDy=0;entryPerimeter=0;" edge="1" parent="1" source="Rv99cOJA1Z-F2tT0oBQJ-22" target="Rv99cOJA1Z-F2tT0oBQJ-109">
          <mxGeometry width="50" height="50" relative="1" as="geometry">
            <mxPoint x="640" y="220" as="sourcePoint" />
            <mxPoint x="690" y="170" as="targetPoint" />
          </mxGeometry>
        </mxCell>
        <mxCell id="Rv99cOJA1Z-F2tT0oBQJ-115" value="" style="endArrow=classic;html=1;rounded=0;strokeColor=#FFFFFF;exitX=1;exitY=0.5;exitDx=0;exitDy=0;exitPerimeter=0;entryX=0;entryY=0.5;entryDx=0;entryDy=0;entryPerimeter=0;" edge="1" parent="1" source="Rv99cOJA1Z-F2tT0oBQJ-20" target="Rv99cOJA1Z-F2tT0oBQJ-109">
          <mxGeometry width="50" height="50" relative="1" as="geometry">
            <mxPoint x="630" y="285" as="sourcePoint" />
            <mxPoint x="700" y="243" as="targetPoint" />
          </mxGeometry>
        </mxCell>
        <mxCell id="Rv99cOJA1Z-F2tT0oBQJ-116" value="" style="endArrow=classic;html=1;rounded=0;strokeColor=#FFFFFF;exitX=1;exitY=0.5;exitDx=0;exitDy=0;exitPerimeter=0;" edge="1" parent="1" source="Rv99cOJA1Z-F2tT0oBQJ-19">
          <mxGeometry width="50" height="50" relative="1" as="geometry">
            <mxPoint x="630" y="224" as="sourcePoint" />
            <mxPoint x="690" y="233" as="targetPoint" />
          </mxGeometry>
        </mxCell>
        <mxCell id="Rv99cOJA1Z-F2tT0oBQJ-117" value="Trigger Task based on Data" style="text;html=1;align=center;verticalAlign=middle;whiteSpace=wrap;rounded=0;fontColor=#FFFFFF;" vertex="1" parent="1">
          <mxGeometry x="675.5" y="270" width="89" height="30" as="geometry" />
        </mxCell>
        <mxCell id="Rv99cOJA1Z-F2tT0oBQJ-119" value="" style="endArrow=classic;html=1;rounded=0;strokeColor=#FFFFFF;exitX=1;exitY=0.5;exitDx=0;exitDy=0;exitPerimeter=0;entryX=0;entryY=0.5;entryDx=0;entryDy=0;entryPerimeter=0;" edge="1" parent="1" source="Rv99cOJA1Z-F2tT0oBQJ-109">
          <mxGeometry width="50" height="50" relative="1" as="geometry">
            <mxPoint x="630" y="185" as="sourcePoint" />
            <mxPoint x="840" y="175" as="targetPoint" />
          </mxGeometry>
        </mxCell>
        <mxCell id="Rv99cOJA1Z-F2tT0oBQJ-251" value="New Order" style="edgeLabel;html=1;align=center;verticalAlign=middle;resizable=0;points=[];fontColor=#FFFFFF;labelBackgroundColor=#000000;" connectable="0" vertex="1" parent="Rv99cOJA1Z-F2tT0oBQJ-119">
          <mxGeometry x="0.0492" relative="1" as="geometry">
            <mxPoint as="offset" />
          </mxGeometry>
        </mxCell>
        <mxCell id="Rv99cOJA1Z-F2tT0oBQJ-168" value="&lt;font style=&quot;font-size: 15px;&quot;&gt;&lt;b&gt;1&lt;/b&gt;&lt;/font&gt;" style="ellipse;shape=doubleEllipse;whiteSpace=wrap;html=1;aspect=fixed;" vertex="1" parent="1">
          <mxGeometry x="25" y="70" width="30" height="30" as="geometry" />
        </mxCell>
        <mxCell id="Rv99cOJA1Z-F2tT0oBQJ-169" value="&lt;font style=&quot;font-size: 15px;&quot;&gt;&lt;b&gt;2&lt;/b&gt;&lt;/font&gt;&lt;span style=&quot;color: rgba(0, 0, 0, 0); font-family: monospace; font-size: 0px; text-align: start; text-wrap: nowrap;&quot;&gt;%3CmxGraphModel%3E%3Croot%3E%3CmxCell%20id%3D%220%22%2F%3E%3CmxCell%20id%3D%221%22%20parent%3D%220%22%2F%3E%3CmxCell%20id%3D%222%22%20value%3D%22%26lt%3Bfont%20style%3D%26quot%3Bfont-size%3A%2015px%3B%26quot%3B%26gt%3B%26lt%3Bb%26gt%3B1%26lt%3B%2Fb%26gt%3B%26lt%3B%2Ffont%26gt%3B%22%20style%3D%22ellipse%3Bshape%3DdoubleEllipse%3BwhiteSpace%3Dwrap%3Bhtml%3D1%3Baspect%3Dfixed%3B%22%20vertex%3D%221%22%20parent%3D%221%22%3E%3CmxGeometry%20x%3D%2225%22%20y%3D%2270%22%20width%3D%2230%22%20height%3D%2230%22%20as%3D%22geometry%22%2F%3E%3C%2FmxCell%3E%3C%2Froot%3E%3C%2FmxGraphModel%3E&lt;/span&gt;" style="ellipse;shape=doubleEllipse;whiteSpace=wrap;html=1;aspect=fixed;" vertex="1" parent="1">
          <mxGeometry x="197" y="110" width="30" height="30" as="geometry" />
        </mxCell>
        <mxCell id="Rv99cOJA1Z-F2tT0oBQJ-170" value="&lt;span style=&quot;font-size: 15px;&quot;&gt;&lt;b&gt;3&lt;/b&gt;&lt;/span&gt;" style="ellipse;shape=doubleEllipse;whiteSpace=wrap;html=1;aspect=fixed;" vertex="1" parent="1">
          <mxGeometry x="390" y="70" width="30" height="30" as="geometry" />
        </mxCell>
        <mxCell id="Rv99cOJA1Z-F2tT0oBQJ-171" value="&lt;span style=&quot;font-size: 15px;&quot;&gt;&lt;b&gt;4&lt;/b&gt;&lt;/span&gt;" style="ellipse;shape=doubleEllipse;whiteSpace=wrap;html=1;aspect=fixed;" vertex="1" parent="1">
          <mxGeometry x="585" y="100" width="30" height="30" as="geometry" />
        </mxCell>
        <mxCell id="Rv99cOJA1Z-F2tT0oBQJ-172" value="" style="rounded=1;whiteSpace=wrap;html=1;fillColor=none;strokeColor=#FFFFFF;" vertex="1" parent="1">
          <mxGeometry x="537.0500000000001" y="1175" width="150" height="130" as="geometry" />
        </mxCell>
        <mxCell id="Rv99cOJA1Z-F2tT0oBQJ-174" value="" style="sketch=0;points=[[0,0,0],[0.25,0,0],[0.5,0,0],[0.75,0,0],[1,0,0],[0,1,0],[0.25,1,0],[0.5,1,0],[0.75,1,0],[1,1,0],[0,0.25,0],[0,0.5,0],[0,0.75,0],[1,0.25,0],[1,0.5,0],[1,0.75,0]];outlineConnect=0;fontColor=#232F3E;fillColor=#E7157B;strokeColor=#ffffff;dashed=0;verticalLabelPosition=bottom;verticalAlign=top;align=center;html=1;fontSize=12;fontStyle=0;aspect=fixed;shape=mxgraph.aws4.resourceIcon;resIcon=mxgraph.aws4.eventbridge;" vertex="1" parent="1">
          <mxGeometry x="549.5500000000001" y="1180" width="35" height="35" as="geometry" />
        </mxCell>
        <mxCell id="Rv99cOJA1Z-F2tT0oBQJ-175" value="&lt;font color=&quot;#ffffff&quot;&gt;EventBridge Scheduler&lt;/font&gt;" style="text;html=1;align=center;verticalAlign=middle;whiteSpace=wrap;rounded=0;" vertex="1" parent="1">
          <mxGeometry x="595.0000000000001" y="1185" width="60" height="30" as="geometry" />
        </mxCell>
        <mxCell id="Rv99cOJA1Z-F2tT0oBQJ-177" value="Fail Checker" style="text;html=1;align=center;verticalAlign=middle;whiteSpace=wrap;rounded=0;fontColor=#FFFFFF;" vertex="1" parent="1">
          <mxGeometry x="417.4" y="554.25" width="110" height="30" as="geometry" />
        </mxCell>
        <mxCell id="Rv99cOJA1Z-F2tT0oBQJ-178" value="Reprocess Order" style="text;html=1;align=center;verticalAlign=middle;whiteSpace=wrap;rounded=0;fontColor=#FFFFFF;" vertex="1" parent="1">
          <mxGeometry x="557.5000000000001" y="1275" width="110" height="30" as="geometry" />
        </mxCell>
        <mxCell id="Rv99cOJA1Z-F2tT0oBQJ-180" value="Check for Payment" style="edgeLabel;html=1;align=center;verticalAlign=middle;resizable=0;points=[];fontColor=#FFFFFF;labelBackgroundColor=none;" connectable="0" vertex="1" parent="1">
          <mxGeometry x="314.99998060512297" y="1275" as="geometry">
            <mxPoint x="172" y="7" as="offset" />
          </mxGeometry>
        </mxCell>
        <mxCell id="Rv99cOJA1Z-F2tT0oBQJ-183" value="&lt;span style=&quot;font-size: 15px;&quot;&gt;&lt;b&gt;5&lt;/b&gt;&lt;/span&gt;" style="ellipse;shape=doubleEllipse;whiteSpace=wrap;html=1;aspect=fixed;" vertex="1" parent="1">
          <mxGeometry x="702" y="160" width="30" height="30" as="geometry" />
        </mxCell>
        <mxCell id="Rv99cOJA1Z-F2tT0oBQJ-185" value="&lt;span style=&quot;font-size: 15px;&quot;&gt;&lt;b&gt;9&lt;/b&gt;&lt;/span&gt;" style="ellipse;shape=doubleEllipse;whiteSpace=wrap;html=1;aspect=fixed;" vertex="1" parent="1">
          <mxGeometry x="364.65" y="431" width="30" height="30" as="geometry" />
        </mxCell>
        <mxCell id="Rv99cOJA1Z-F2tT0oBQJ-210" value="" style="rounded=1;whiteSpace=wrap;html=1;fillColor=none;strokeColor=#FFFFFF;" vertex="1" parent="1">
          <mxGeometry x="149.54999999999998" y="921" width="480" height="174" as="geometry" />
        </mxCell>
        <mxCell id="Rv99cOJA1Z-F2tT0oBQJ-211" value="" style="sketch=0;points=[[0,0,0],[0.25,0,0],[0.5,0,0],[0.75,0,0],[1,0,0],[0,1,0],[0.25,1,0],[0.5,1,0],[0.75,1,0],[1,1,0],[0,0.25,0],[0,0.5,0],[0,0.75,0],[1,0.25,0],[1,0.5,0],[1,0.75,0]];outlineConnect=0;fontColor=#232F3E;fillColor=#E7157B;strokeColor=#ffffff;dashed=0;verticalLabelPosition=bottom;verticalAlign=top;align=center;html=1;fontSize=12;fontStyle=0;aspect=fixed;shape=mxgraph.aws4.resourceIcon;resIcon=mxgraph.aws4.managed_workflows_for_apache_airflow;" vertex="1" parent="1">
          <mxGeometry x="157.54999999999998" y="935" width="32.5" height="32.5" as="geometry" />
        </mxCell>
        <mxCell id="Rv99cOJA1Z-F2tT0oBQJ-212" value="&lt;font color=&quot;#ffffff&quot;&gt;AWS Managed Workflow Airflow&lt;/font&gt;" style="text;html=1;align=center;verticalAlign=middle;whiteSpace=wrap;rounded=0;" vertex="1" parent="1">
          <mxGeometry x="179.54999999999998" y="937.5" width="210" height="30" as="geometry" />
        </mxCell>
        <mxCell id="Rv99cOJA1Z-F2tT0oBQJ-213" style="edgeStyle=orthogonalEdgeStyle;rounded=0;orthogonalLoop=1;jettySize=auto;html=1;exitX=0;exitY=0.5;exitDx=0;exitDy=0;" edge="1" parent="1" source="Rv99cOJA1Z-F2tT0oBQJ-212" target="Rv99cOJA1Z-F2tT0oBQJ-212">
          <mxGeometry relative="1" as="geometry" />
        </mxCell>
        <mxCell id="Rv99cOJA1Z-F2tT0oBQJ-215" value="" style="outlineConnect=0;dashed=0;verticalLabelPosition=bottom;verticalAlign=top;align=center;html=1;shape=mxgraph.aws3.lambda_function;fillColor=#F58534;gradientColor=none;" vertex="1" parent="1">
          <mxGeometry x="179.54999999999998" y="982.5" width="60" height="55" as="geometry" />
        </mxCell>
        <mxCell id="Rv99cOJA1Z-F2tT0oBQJ-216" value="Construct Order Object" style="text;html=1;align=center;verticalAlign=middle;whiteSpace=wrap;rounded=0;fontColor=#FFFFFF;" vertex="1" parent="1">
          <mxGeometry x="165.04999999999998" y="1045" width="89" height="30" as="geometry" />
        </mxCell>
        <mxCell id="Rv99cOJA1Z-F2tT0oBQJ-217" value="" style="outlineConnect=0;dashed=0;verticalLabelPosition=bottom;verticalAlign=top;align=center;html=1;shape=mxgraph.aws3.lambda_function;fillColor=#F58534;gradientColor=none;" vertex="1" parent="1">
          <mxGeometry x="300.04999999999995" y="983" width="60" height="55" as="geometry" />
        </mxCell>
        <mxCell id="Rv99cOJA1Z-F2tT0oBQJ-218" value="" style="endArrow=classic;html=1;rounded=0;strokeColor=#FFFFFF;exitX=1;exitY=0.5;exitDx=0;exitDy=0;exitPerimeter=0;entryX=0;entryY=0.5;entryDx=0;entryDy=0;entryPerimeter=0;" edge="1" parent="1" source="Rv99cOJA1Z-F2tT0oBQJ-215" target="Rv99cOJA1Z-F2tT0oBQJ-217">
          <mxGeometry width="50" height="50" relative="1" as="geometry">
            <mxPoint x="-30.450000000000017" y="1020" as="sourcePoint" />
            <mxPoint x="39.54999999999998" y="1078" as="targetPoint" />
          </mxGeometry>
        </mxCell>
        <mxCell id="Rv99cOJA1Z-F2tT0oBQJ-219" value="Check Payment Status" style="text;html=1;align=center;verticalAlign=middle;whiteSpace=wrap;rounded=0;fontColor=#FFFFFF;" vertex="1" parent="1">
          <mxGeometry x="295.04999999999995" y="1045" width="89" height="30" as="geometry" />
        </mxCell>
        <mxCell id="Rv99cOJA1Z-F2tT0oBQJ-220" value="" style="outlineConnect=0;dashed=0;verticalLabelPosition=bottom;verticalAlign=top;align=center;html=1;shape=mxgraph.aws3.lambda_function;fillColor=#F58534;gradientColor=none;" vertex="1" parent="1">
          <mxGeometry x="419.54999999999995" y="982.5" width="60" height="55" as="geometry" />
        </mxCell>
        <mxCell id="Rv99cOJA1Z-F2tT0oBQJ-221" value="" style="endArrow=classic;html=1;rounded=0;strokeColor=#FFFFFF;exitX=1;exitY=0.5;exitDx=0;exitDy=0;exitPerimeter=0;entryX=0;entryY=0.5;entryDx=0;entryDy=0;entryPerimeter=0;" edge="1" parent="1" source="Rv99cOJA1Z-F2tT0oBQJ-217" target="Rv99cOJA1Z-F2tT0oBQJ-220">
          <mxGeometry width="50" height="50" relative="1" as="geometry">
            <mxPoint x="249.54999999999993" y="1021" as="sourcePoint" />
            <mxPoint x="319.54999999999995" y="1020" as="targetPoint" />
          </mxGeometry>
        </mxCell>
        <mxCell id="Rv99cOJA1Z-F2tT0oBQJ-222" value="Confirm Order" style="text;html=1;align=center;verticalAlign=middle;whiteSpace=wrap;rounded=0;fontColor=#FFFFFF;" vertex="1" parent="1">
          <mxGeometry x="405.04999999999995" y="1045" width="89" height="30" as="geometry" />
        </mxCell>
        <mxCell id="Rv99cOJA1Z-F2tT0oBQJ-223" value="" style="outlineConnect=0;dashed=0;verticalLabelPosition=bottom;verticalAlign=top;align=center;html=1;shape=mxgraph.aws3.lambda_function;fillColor=#F58534;gradientColor=none;" vertex="1" parent="1">
          <mxGeometry x="537.0500000000001" y="982.5" width="60" height="55" as="geometry" />
        </mxCell>
        <mxCell id="Rv99cOJA1Z-F2tT0oBQJ-224" value="" style="endArrow=classic;html=1;rounded=0;strokeColor=#FFFFFF;exitX=1;exitY=0.5;exitDx=0;exitDy=0;exitPerimeter=0;entryX=0;entryY=0.5;entryDx=0;entryDy=0;entryPerimeter=0;" edge="1" parent="1" source="Rv99cOJA1Z-F2tT0oBQJ-220" target="Rv99cOJA1Z-F2tT0oBQJ-223">
          <mxGeometry width="50" height="50" relative="1" as="geometry">
            <mxPoint x="379.54999999999995" y="1020" as="sourcePoint" />
            <mxPoint x="429.54999999999995" y="1020" as="targetPoint" />
          </mxGeometry>
        </mxCell>
        <mxCell id="Rv99cOJA1Z-F2tT0oBQJ-225" value="Load Order Data" style="text;html=1;align=center;verticalAlign=middle;whiteSpace=wrap;rounded=0;fontColor=#FFFFFF;" vertex="1" parent="1">
          <mxGeometry x="515.0500000000001" y="1045" width="89" height="30" as="geometry" />
        </mxCell>
        <mxCell id="Rv99cOJA1Z-F2tT0oBQJ-226" value="" style="outlineConnect=0;dashed=0;verticalLabelPosition=bottom;verticalAlign=top;align=center;html=1;shape=mxgraph.aws3.redshift;fillColor=#2E73B8;gradientColor=none;" vertex="1" parent="1">
          <mxGeometry x="659.5500000000001" y="972.5" width="67.5" height="75" as="geometry" />
        </mxCell>
        <mxCell id="Rv99cOJA1Z-F2tT0oBQJ-227" style="edgeStyle=orthogonalEdgeStyle;rounded=0;orthogonalLoop=1;jettySize=auto;html=1;exitX=1;exitY=0.5;exitDx=0;exitDy=0;exitPerimeter=0;entryX=0;entryY=0.5;entryDx=0;entryDy=0;entryPerimeter=0;strokeColor=#FFFFFF;" edge="1" parent="1" source="Rv99cOJA1Z-F2tT0oBQJ-223" target="Rv99cOJA1Z-F2tT0oBQJ-226">
          <mxGeometry relative="1" as="geometry" />
        </mxCell>
        <mxCell id="Rv99cOJA1Z-F2tT0oBQJ-228" value="AWS Redshift" style="text;html=1;align=center;verticalAlign=middle;whiteSpace=wrap;rounded=0;fontColor=#FFFFFF;" vertex="1" parent="1">
          <mxGeometry x="648.8000000000001" y="1055" width="89" height="30" as="geometry" />
        </mxCell>
        <mxCell id="Rv99cOJA1Z-F2tT0oBQJ-229" value="&lt;span style=&quot;background-color: rgb(0, 0, 0);&quot;&gt;&lt;font color=&quot;#ffffff&quot;&gt;Update&lt;/font&gt;&lt;/span&gt;" style="edgeLabel;html=1;align=center;verticalAlign=middle;resizable=0;points=[];" connectable="0" vertex="1" parent="1">
          <mxGeometry x="295.05417953842624" y="1134.2854144535079" as="geometry" />
        </mxCell>
        <mxCell id="Rv99cOJA1Z-F2tT0oBQJ-230" value="&lt;span style=&quot;background-color: rgb(0, 0, 0);&quot;&gt;&lt;font color=&quot;#ffffff&quot;&gt;Update&lt;/font&gt;&lt;/span&gt;" style="edgeLabel;html=1;align=center;verticalAlign=middle;resizable=0;points=[];" connectable="0" vertex="1" parent="1">
          <mxGeometry x="356.5952617536666" y="1135.412390689316" as="geometry" />
        </mxCell>
        <mxCell id="Rv99cOJA1Z-F2tT0oBQJ-231" value="&lt;span style=&quot;background-color: rgb(0, 0, 0);&quot;&gt;&lt;font color=&quot;#ffffff&quot;&gt;Update&lt;/font&gt;&lt;/span&gt;" style="edgeLabel;html=1;align=center;verticalAlign=middle;resizable=0;points=[];" connectable="0" vertex="1" parent="1">
          <mxGeometry x="413.15007477991037" y="1134.2891752205337" as="geometry" />
        </mxCell>
        <mxCell id="Rv99cOJA1Z-F2tT0oBQJ-232" value="&lt;span style=&quot;background-color: rgb(0, 0, 0);&quot;&gt;&lt;font color=&quot;#ffffff&quot;&gt;Delete&lt;/font&gt;&lt;/span&gt;" style="edgeLabel;html=1;align=center;verticalAlign=middle;resizable=0;points=[];" connectable="0" vertex="1" parent="1">
          <mxGeometry x="439.545482163557" y="1154.9977524801766" as="geometry" />
        </mxCell>
        <mxCell id="Rv99cOJA1Z-F2tT0oBQJ-233" value="&lt;span style=&quot;font-size: 15px;&quot;&gt;&lt;b&gt;6&lt;/b&gt;&lt;/span&gt;" style="ellipse;shape=doubleEllipse;whiteSpace=wrap;html=1;aspect=fixed;" vertex="1" parent="1">
          <mxGeometry x="584.5500000000001" y="925" width="30" height="30" as="geometry" />
        </mxCell>
        <mxCell id="Rv99cOJA1Z-F2tT0oBQJ-234" value="" style="edgeStyle=orthogonalEdgeStyle;rounded=0;orthogonalLoop=1;jettySize=auto;html=1;" edge="1" parent="1" source="Rv99cOJA1Z-F2tT0oBQJ-236" target="Rv99cOJA1Z-F2tT0oBQJ-212">
          <mxGeometry relative="1" as="geometry" />
        </mxCell>
        <mxCell id="Rv99cOJA1Z-F2tT0oBQJ-235" style="edgeStyle=orthogonalEdgeStyle;rounded=0;orthogonalLoop=1;jettySize=auto;html=1;exitX=0;exitY=0.48;exitDx=0;exitDy=0;exitPerimeter=0;strokeColor=#FFFFFF;" edge="1" parent="1" source="Rv99cOJA1Z-F2tT0oBQJ-236" target="Rv99cOJA1Z-F2tT0oBQJ-242">
          <mxGeometry relative="1" as="geometry" />
        </mxCell>
        <mxCell id="Rv99cOJA1Z-F2tT0oBQJ-236" value="" style="outlineConnect=0;dashed=0;verticalLabelPosition=bottom;verticalAlign=top;align=center;html=1;shape=mxgraph.aws3.ses;fillColor=#D9A741;gradientColor=none;" vertex="1" parent="1">
          <mxGeometry x="362.54999999999995" y="775" width="60" height="60" as="geometry" />
        </mxCell>
        <mxCell id="Rv99cOJA1Z-F2tT0oBQJ-237" value="" style="endArrow=classic;dashed=1;html=1;dashPattern=1 3;strokeWidth=2;rounded=0;entryX=0.5;entryY=1;entryDx=0;entryDy=0;entryPerimeter=0;exitX=0.5;exitY=0;exitDx=0;exitDy=0;exitPerimeter=0;strokeColor=#FFFFFF;startArrow=none;startFill=0;endFill=1;" edge="1" parent="1" source="Rv99cOJA1Z-F2tT0oBQJ-217" target="Rv99cOJA1Z-F2tT0oBQJ-236">
          <mxGeometry width="50" height="50" relative="1" as="geometry">
            <mxPoint x="340.54999999999995" y="1048" as="sourcePoint" />
            <mxPoint x="402.54999999999995" y="1275" as="targetPoint" />
          </mxGeometry>
        </mxCell>
        <mxCell id="Rv99cOJA1Z-F2tT0oBQJ-238" value="&lt;span style=&quot;background-color: rgb(0, 0, 0);&quot;&gt;&lt;font color=&quot;#ffffff&quot;&gt;Failed Payment&lt;/font&gt;&lt;/span&gt;" style="edgeLabel;html=1;align=center;verticalAlign=middle;resizable=0;points=[];" connectable="0" vertex="1" parent="Rv99cOJA1Z-F2tT0oBQJ-237">
          <mxGeometry x="-0.1543" relative="1" as="geometry">
            <mxPoint x="-8" y="-27" as="offset" />
          </mxGeometry>
        </mxCell>
        <mxCell id="Rv99cOJA1Z-F2tT0oBQJ-239" value="" style="endArrow=classic;dashed=1;html=1;dashPattern=1 3;strokeWidth=2;rounded=0;exitX=0.5;exitY=0;exitDx=0;exitDy=0;exitPerimeter=0;strokeColor=#FFFFFF;startArrow=none;startFill=0;endFill=1;entryX=0.5;entryY=1;entryDx=0;entryDy=0;entryPerimeter=0;" edge="1" parent="1" source="Rv99cOJA1Z-F2tT0oBQJ-220" target="Rv99cOJA1Z-F2tT0oBQJ-236">
          <mxGeometry width="50" height="50" relative="1" as="geometry">
            <mxPoint x="340.54999999999995" y="993" as="sourcePoint" />
            <mxPoint x="399.54999999999995" y="855" as="targetPoint" />
          </mxGeometry>
        </mxCell>
        <mxCell id="Rv99cOJA1Z-F2tT0oBQJ-240" value="&lt;font style=&quot;background-color: rgb(0, 0, 0);&quot; color=&quot;#ffffff&quot;&gt;Order&amp;nbsp;&lt;/font&gt;&lt;span style=&quot;background-color: rgb(0, 0, 0); color: rgb(255, 255, 255);&quot;&gt;Confirm&lt;/span&gt;" style="edgeLabel;html=1;align=center;verticalAlign=middle;resizable=0;points=[];" connectable="0" vertex="1" parent="Rv99cOJA1Z-F2tT0oBQJ-239">
          <mxGeometry x="-0.1543" relative="1" as="geometry">
            <mxPoint x="15" y="-31" as="offset" />
          </mxGeometry>
        </mxCell>
        <mxCell id="Rv99cOJA1Z-F2tT0oBQJ-241" value="Amazon SES" style="text;html=1;align=center;verticalAlign=middle;whiteSpace=wrap;rounded=0;fontColor=#FFFFFF;" vertex="1" parent="1">
          <mxGeometry x="350.54999999999995" y="745" width="89" height="30" as="geometry" />
        </mxCell>
        <mxCell id="Rv99cOJA1Z-F2tT0oBQJ-242" value="" style="sketch=0;pointerEvents=1;shadow=0;dashed=0;html=1;strokeColor=none;fillColor=#505050;labelPosition=center;verticalLabelPosition=bottom;verticalAlign=top;outlineConnect=0;align=center;shape=mxgraph.office.users.credentials;" vertex="1" parent="1">
          <mxGeometry x="255.54999999999993" y="775" width="56" height="58" as="geometry" />
        </mxCell>
        <mxCell id="Rv99cOJA1Z-F2tT0oBQJ-243" value="Customer" style="text;html=1;align=center;verticalAlign=middle;whiteSpace=wrap;rounded=0;fontColor=#FFFFFF;" vertex="1" parent="1">
          <mxGeometry x="239.04999999999995" y="833" width="89" height="30" as="geometry" />
        </mxCell>
        <mxCell id="Rv99cOJA1Z-F2tT0oBQJ-244" style="edgeStyle=orthogonalEdgeStyle;rounded=0;orthogonalLoop=1;jettySize=auto;html=1;exitX=1;exitY=0.5;exitDx=0;exitDy=0;exitPerimeter=0;strokeColor=#FFFFFF;" edge="1" parent="1" source="Rv99cOJA1Z-F2tT0oBQJ-245" target="Rv99cOJA1Z-F2tT0oBQJ-248">
          <mxGeometry relative="1" as="geometry" />
        </mxCell>
        <mxCell id="Rv99cOJA1Z-F2tT0oBQJ-245" value="" style="sketch=0;points=[[0,0,0],[0.25,0,0],[0.5,0,0],[0.75,0,0],[1,0,0],[0,1,0],[0.25,1,0],[0.5,1,0],[0.75,1,0],[1,1,0],[0,0.25,0],[0,0.5,0],[0,0.75,0],[1,0.25,0],[1,0.5,0],[1,0.75,0]];outlineConnect=0;fontColor=#232F3E;fillColor=#E7157B;strokeColor=#ffffff;dashed=0;verticalLabelPosition=bottom;verticalAlign=top;align=center;html=1;fontSize=12;fontStyle=0;aspect=fixed;shape=mxgraph.aws4.resourceIcon;resIcon=mxgraph.aws4.sns;" vertex="1" parent="1">
          <mxGeometry x="532.5500000000001" y="794" width="69" height="69" as="geometry" />
        </mxCell>
        <mxCell id="Rv99cOJA1Z-F2tT0oBQJ-246" style="edgeStyle=orthogonalEdgeStyle;rounded=0;orthogonalLoop=1;jettySize=auto;html=1;exitX=0.5;exitY=0;exitDx=0;exitDy=0;exitPerimeter=0;entryX=0.5;entryY=1;entryDx=0;entryDy=0;entryPerimeter=0;strokeColor=#FFFFFF;" edge="1" parent="1" source="Rv99cOJA1Z-F2tT0oBQJ-223" target="Rv99cOJA1Z-F2tT0oBQJ-245">
          <mxGeometry relative="1" as="geometry" />
        </mxCell>
        <mxCell id="Rv99cOJA1Z-F2tT0oBQJ-247" value="&lt;font color=&quot;#ffffff&quot;&gt;Aws SNS&lt;/font&gt;" style="text;html=1;align=center;verticalAlign=middle;whiteSpace=wrap;rounded=0;" vertex="1" parent="1">
          <mxGeometry x="537.0500000000001" y="764" width="60" height="30" as="geometry" />
        </mxCell>
        <mxCell id="Rv99cOJA1Z-F2tT0oBQJ-248" value="" style="verticalLabelPosition=bottom;aspect=fixed;html=1;shape=mxgraph.salesforce.social_studio2;" vertex="1" parent="1">
          <mxGeometry x="663.5500000000001" y="799" width="60" height="60" as="geometry" />
        </mxCell>
        <mxCell id="Rv99cOJA1Z-F2tT0oBQJ-249" value="Notify Packaging" style="text;html=1;align=center;verticalAlign=middle;whiteSpace=wrap;rounded=0;fontColor=#FFFFFF;" vertex="1" parent="1">
          <mxGeometry x="601.5500000000001" y="859" width="98" height="30" as="geometry" />
        </mxCell>
        <mxCell id="Rv99cOJA1Z-F2tT0oBQJ-250" value="&lt;span style=&quot;font-size: 15px;&quot;&gt;&lt;b&gt;6&lt;/b&gt;&lt;/span&gt;" style="ellipse;shape=doubleEllipse;whiteSpace=wrap;html=1;aspect=fixed;" vertex="1" parent="1">
          <mxGeometry x="840" y="160" width="30" height="30" as="geometry" />
        </mxCell>
        <mxCell id="Rv99cOJA1Z-F2tT0oBQJ-252" value="&lt;span style=&quot;font-size: 15px;&quot;&gt;&lt;b&gt;7&lt;/b&gt;&lt;/span&gt;" style="ellipse;shape=doubleEllipse;whiteSpace=wrap;html=1;aspect=fixed;" vertex="1" parent="1">
          <mxGeometry x="857.5" y="220" width="30" height="30" as="geometry" />
        </mxCell>
        <mxCell id="Rv99cOJA1Z-F2tT0oBQJ-253" value="&lt;span style=&quot;font-size: 15px;&quot;&gt;&lt;b&gt;8&lt;/b&gt;&lt;/span&gt;" style="ellipse;shape=doubleEllipse;whiteSpace=wrap;html=1;aspect=fixed;" vertex="1" parent="1">
          <mxGeometry x="840" y="276" width="30" height="30" as="geometry" />
        </mxCell>
        <mxCell id="Rv99cOJA1Z-F2tT0oBQJ-264" value="" style="endArrow=classic;html=1;rounded=0;strokeColor=#FFFFFF;exitX=1;exitY=0.5;exitDx=0;exitDy=0;exitPerimeter=0;entryX=0;entryY=0.5;entryDx=0;entryDy=0;" edge="1" parent="1" target="Rv99cOJA1Z-F2tT0oBQJ-252">
          <mxGeometry width="50" height="50" relative="1" as="geometry">
            <mxPoint x="750" y="233" as="sourcePoint" />
            <mxPoint x="840" y="235" as="targetPoint" />
          </mxGeometry>
        </mxCell>
        <mxCell id="Rv99cOJA1Z-F2tT0oBQJ-265" value="Return Order" style="edgeLabel;html=1;align=center;verticalAlign=middle;resizable=0;points=[];fontColor=#FFFFFF;labelBackgroundColor=#000000;" connectable="0" vertex="1" parent="Rv99cOJA1Z-F2tT0oBQJ-264">
          <mxGeometry x="0.0492" relative="1" as="geometry">
            <mxPoint as="offset" />
          </mxGeometry>
        </mxCell>
        <mxCell id="Rv99cOJA1Z-F2tT0oBQJ-266" value="" style="endArrow=classic;html=1;rounded=0;strokeColor=#FFFFFF;exitX=1;exitY=0.5;exitDx=0;exitDy=0;exitPerimeter=0;entryX=0;entryY=0.5;entryDx=0;entryDy=0;" edge="1" parent="1" source="Rv99cOJA1Z-F2tT0oBQJ-109" target="Rv99cOJA1Z-F2tT0oBQJ-253">
          <mxGeometry width="50" height="50" relative="1" as="geometry">
            <mxPoint x="760" y="243" as="sourcePoint" />
            <mxPoint x="850" y="245" as="targetPoint" />
          </mxGeometry>
        </mxCell>
        <mxCell id="Rv99cOJA1Z-F2tT0oBQJ-267" value="Update Order" style="edgeLabel;html=1;align=center;verticalAlign=middle;resizable=0;points=[];fontColor=#FFFFFF;labelBackgroundColor=#000000;" connectable="0" vertex="1" parent="Rv99cOJA1Z-F2tT0oBQJ-266">
          <mxGeometry x="0.0492" relative="1" as="geometry">
            <mxPoint as="offset" />
          </mxGeometry>
        </mxCell>
        <mxCell id="r4IXp4akksPEYu1bz3kI-2" value="&lt;span style=&quot;background-color: rgb(0, 0, 0);&quot;&gt;&lt;font color=&quot;#ffffff&quot;&gt;Raw Data&lt;/font&gt;&lt;/span&gt;" style="edgeLabel;html=1;align=center;verticalAlign=middle;resizable=0;points=[];" connectable="0" vertex="1" parent="1">
          <mxGeometry x="510.0040898616834" y="468.4967152075342" as="geometry">
            <mxPoint x="85" y="-76" as="offset" />
          </mxGeometry>
        </mxCell>
        <mxCell id="r4IXp4akksPEYu1bz3kI-3" value="&lt;font size=&quot;1&quot; color=&quot;#ffffff&quot;&gt;&lt;b&gt;&lt;u style=&quot;font-size: 24px;&quot;&gt;Data Streaming Pipeline&lt;/u&gt;&lt;/b&gt;&lt;/font&gt;" style="text;html=1;align=center;verticalAlign=middle;whiteSpace=wrap;rounded=0;" vertex="1" parent="1">
          <mxGeometry x="321.15" y="630" width="293.85" height="30" as="geometry" />
        </mxCell>
        <mxCell id="r4IXp4akksPEYu1bz3kI-5" value="" style="outlineConnect=0;dashed=0;verticalLabelPosition=bottom;verticalAlign=top;align=center;html=1;shape=mxgraph.aws3.dynamo_db;fillColor=#2E73B8;gradientColor=none;" vertex="1" parent="1">
          <mxGeometry x="353.82" y="1225" width="46" height="50" as="geometry" />
        </mxCell>
        <mxCell id="r4IXp4akksPEYu1bz3kI-7" value="Dynamo DB" style="text;html=1;align=center;verticalAlign=middle;whiteSpace=wrap;rounded=0;fontColor=#FFFFFF;" vertex="1" parent="1">
          <mxGeometry x="343.15" y="1265" width="70" height="40" as="geometry" />
        </mxCell>
        <mxCell id="r4IXp4akksPEYu1bz3kI-8" value="Temporary Storage" style="text;html=1;align=center;verticalAlign=middle;whiteSpace=wrap;rounded=0;fontColor=#FFFFFF;" vertex="1" parent="1">
          <mxGeometry x="321.82" y="1296.5" width="110" height="30" as="geometry" />
        </mxCell>
        <mxCell id="r4IXp4akksPEYu1bz3kI-9" style="edgeStyle=orthogonalEdgeStyle;rounded=0;orthogonalLoop=1;jettySize=auto;html=1;exitX=1;exitY=0.25;exitDx=0;exitDy=0;entryX=1.026;entryY=0.362;entryDx=0;entryDy=0;entryPerimeter=0;" edge="1" parent="1" source="r4IXp4akksPEYu1bz3kI-6" target="r4IXp4akksPEYu1bz3kI-6">
          <mxGeometry relative="1" as="geometry" />
        </mxCell>
        <mxCell id="r4IXp4akksPEYu1bz3kI-10" value="" style="endArrow=none;dashed=1;html=1;dashPattern=1 3;strokeWidth=2;rounded=0;entryX=0.5;entryY=1;entryDx=0;entryDy=0;entryPerimeter=0;exitX=0.5;exitY=0;exitDx=0;exitDy=0;exitPerimeter=0;strokeColor=#FFFFFF;startArrow=classic;startFill=1;" edge="1" parent="1" source="r4IXp4akksPEYu1bz3kI-5" target="Rv99cOJA1Z-F2tT0oBQJ-215">
          <mxGeometry width="50" height="50" relative="1" as="geometry">
            <mxPoint x="475" y="1235" as="sourcePoint" />
            <mxPoint x="525.0000000000001" y="1185" as="targetPoint" />
          </mxGeometry>
        </mxCell>
        <mxCell id="r4IXp4akksPEYu1bz3kI-11" value="" style="endArrow=none;dashed=1;html=1;dashPattern=1 3;strokeWidth=2;rounded=0;entryX=0.5;entryY=1;entryDx=0;entryDy=0;entryPerimeter=0;exitX=0.5;exitY=0;exitDx=0;exitDy=0;exitPerimeter=0;strokeColor=#FFFFFF;startArrow=classic;startFill=1;" edge="1" parent="1" source="r4IXp4akksPEYu1bz3kI-5" target="Rv99cOJA1Z-F2tT0oBQJ-217">
          <mxGeometry width="50" height="50" relative="1" as="geometry">
            <mxPoint x="387" y="1235" as="sourcePoint" />
            <mxPoint x="220" y="1048" as="targetPoint" />
          </mxGeometry>
        </mxCell>
        <mxCell id="r4IXp4akksPEYu1bz3kI-12" value="" style="endArrow=none;dashed=1;html=1;dashPattern=1 3;strokeWidth=2;rounded=0;entryX=0.5;entryY=1;entryDx=0;entryDy=0;entryPerimeter=0;exitX=0.5;exitY=0;exitDx=0;exitDy=0;exitPerimeter=0;strokeColor=#FFFFFF;startArrow=classic;startFill=1;" edge="1" parent="1" source="r4IXp4akksPEYu1bz3kI-5" target="Rv99cOJA1Z-F2tT0oBQJ-220">
          <mxGeometry width="50" height="50" relative="1" as="geometry">
            <mxPoint x="387" y="1235" as="sourcePoint" />
            <mxPoint x="340" y="1048" as="targetPoint" />
          </mxGeometry>
        </mxCell>
        <mxCell id="r4IXp4akksPEYu1bz3kI-13" value="" style="endArrow=none;dashed=1;html=1;dashPattern=1 3;strokeWidth=2;rounded=0;entryX=0.5;entryY=1;entryDx=0;entryDy=0;entryPerimeter=0;exitX=0.5;exitY=0;exitDx=0;exitDy=0;exitPerimeter=0;strokeColor=#FFFFFF;startArrow=classic;startFill=1;" edge="1" parent="1" source="r4IXp4akksPEYu1bz3kI-5" target="Rv99cOJA1Z-F2tT0oBQJ-223">
          <mxGeometry width="50" height="50" relative="1" as="geometry">
            <mxPoint x="387" y="1235" as="sourcePoint" />
            <mxPoint x="460" y="1048" as="targetPoint" />
          </mxGeometry>
        </mxCell>
        <mxCell id="r4IXp4akksPEYu1bz3kI-14" value="&lt;span style=&quot;font-size: 15px;&quot;&gt;&lt;b&gt;6&lt;/b&gt;&lt;/span&gt;" style="ellipse;shape=doubleEllipse;whiteSpace=wrap;html=1;aspect=fixed;" vertex="1" parent="1">
          <mxGeometry x="55" y="995.5" width="30" height="30" as="geometry" />
        </mxCell>
        <mxCell id="r4IXp4akksPEYu1bz3kI-15" value="New Order" style="text;html=1;align=center;verticalAlign=middle;whiteSpace=wrap;rounded=0;fontColor=#FFFFFF;" vertex="1" parent="1">
          <mxGeometry x="26.149999999999977" y="1025.93" width="89" height="30" as="geometry" />
        </mxCell>
        <mxCell id="r4IXp4akksPEYu1bz3kI-16" value="" style="endArrow=classic;html=1;rounded=0;strokeColor=#FFFFFF;exitX=1;exitY=0.5;exitDx=0;exitDy=0;entryX=0;entryY=0.5;entryDx=0;entryDy=0;entryPerimeter=0;" edge="1" parent="1" source="r4IXp4akksPEYu1bz3kI-14" target="Rv99cOJA1Z-F2tT0oBQJ-215">
          <mxGeometry width="50" height="50" relative="1" as="geometry">
            <mxPoint x="249.99999999999997" y="1020" as="sourcePoint" />
            <mxPoint x="310" y="1021" as="targetPoint" />
          </mxGeometry>
        </mxCell>
        <mxCell id="r4IXp4akksPEYu1bz3kI-17" value="" style="outlineConnect=0;dashed=0;verticalLabelPosition=bottom;verticalAlign=top;align=center;html=1;shape=mxgraph.aws3.lambda_function;fillColor=#F58534;gradientColor=none;" vertex="1" parent="1">
          <mxGeometry x="580.0000000000001" y="1225" width="65" height="50" as="geometry" />
        </mxCell>
        <mxCell id="r4IXp4akksPEYu1bz3kI-19" value="" style="endArrow=classic;html=1;rounded=0;strokeColor=#FFFFFF;exitX=1;exitY=0.5;exitDx=0;exitDy=0;exitPerimeter=0;entryX=0;entryY=0.5;entryDx=0;entryDy=0;entryPerimeter=0;" edge="1" parent="1" source="r4IXp4akksPEYu1bz3kI-5" target="r4IXp4akksPEYu1bz3kI-17">
          <mxGeometry width="50" height="50" relative="1" as="geometry">
            <mxPoint x="490" y="1020" as="sourcePoint" />
            <mxPoint x="547.0000000000001" y="1020" as="targetPoint" />
          </mxGeometry>
        </mxCell>
        <mxCell id="r4IXp4akksPEYu1bz3kI-20" value="" style="endArrow=none;dashed=1;html=1;dashPattern=1 3;strokeWidth=2;rounded=0;entryX=0.5;entryY=0;entryDx=0;entryDy=0;entryPerimeter=0;exitX=0.855;exitY=0.855;exitDx=0;exitDy=0;exitPerimeter=0;strokeColor=#FFFFFF;startArrow=classic;startFill=1;" edge="1" parent="1" source="Rv99cOJA1Z-F2tT0oBQJ-217" target="r4IXp4akksPEYu1bz3kI-17">
          <mxGeometry width="50" height="50" relative="1" as="geometry">
            <mxPoint x="387" y="1235" as="sourcePoint" />
            <mxPoint x="577.0000000000001" y="1048" as="targetPoint" />
          </mxGeometry>
        </mxCell>
        <mxCell id="r4IXp4akksPEYu1bz3kI-21" value="&lt;font size=&quot;1&quot; color=&quot;#ffffff&quot;&gt;&lt;b&gt;&lt;u style=&quot;font-size: 24px;&quot;&gt;New Order Processing&lt;/u&gt;&lt;/b&gt;&lt;/font&gt;" style="text;html=1;align=center;verticalAlign=middle;whiteSpace=wrap;rounded=0;" vertex="1" parent="1">
          <mxGeometry x="248.12999999999994" y="1365" width="293.85" height="30" as="geometry" />
        </mxCell>
        <mxCell id="r4IXp4akksPEYu1bz3kI-23" value="" style="rounded=1;whiteSpace=wrap;html=1;fillColor=none;strokeColor=#FFFFFF;" vertex="1" parent="1">
          <mxGeometry x="318.65" y="1915" width="116.35" height="121.5" as="geometry" />
        </mxCell>
        <mxCell id="r4IXp4akksPEYu1bz3kI-29" value="" style="rounded=1;whiteSpace=wrap;html=1;fillColor=none;strokeColor=#FFFFFF;" vertex="1" parent="1">
          <mxGeometry x="149.55" y="1631" width="385.45" height="169" as="geometry" />
        </mxCell>
        <mxCell id="r4IXp4akksPEYu1bz3kI-30" value="" style="sketch=0;points=[[0,0,0],[0.25,0,0],[0.5,0,0],[0.75,0,0],[1,0,0],[0,1,0],[0.25,1,0],[0.5,1,0],[0.75,1,0],[1,1,0],[0,0.25,0],[0,0.5,0],[0,0.75,0],[1,0.25,0],[1,0.5,0],[1,0.75,0]];outlineConnect=0;fontColor=#232F3E;fillColor=#E7157B;strokeColor=#ffffff;dashed=0;verticalLabelPosition=bottom;verticalAlign=top;align=center;html=1;fontSize=12;fontStyle=0;aspect=fixed;shape=mxgraph.aws4.resourceIcon;resIcon=mxgraph.aws4.managed_workflows_for_apache_airflow;" vertex="1" parent="1">
          <mxGeometry x="157.54999999999998" y="1645" width="32.5" height="32.5" as="geometry" />
        </mxCell>
        <mxCell id="r4IXp4akksPEYu1bz3kI-31" value="&lt;font color=&quot;#ffffff&quot;&gt;AWS Managed Workflow Airflow&lt;/font&gt;" style="text;html=1;align=center;verticalAlign=middle;whiteSpace=wrap;rounded=0;" vertex="1" parent="1">
          <mxGeometry x="179.54999999999998" y="1647.5" width="210" height="30" as="geometry" />
        </mxCell>
        <mxCell id="r4IXp4akksPEYu1bz3kI-32" style="edgeStyle=orthogonalEdgeStyle;rounded=0;orthogonalLoop=1;jettySize=auto;html=1;exitX=0;exitY=0.5;exitDx=0;exitDy=0;" edge="1" parent="1" source="r4IXp4akksPEYu1bz3kI-31" target="r4IXp4akksPEYu1bz3kI-31">
          <mxGeometry relative="1" as="geometry" />
        </mxCell>
        <mxCell id="r4IXp4akksPEYu1bz3kI-33" value="" style="outlineConnect=0;dashed=0;verticalLabelPosition=bottom;verticalAlign=top;align=center;html=1;shape=mxgraph.aws3.lambda_function;fillColor=#F58534;gradientColor=none;" vertex="1" parent="1">
          <mxGeometry x="179.54999999999998" y="1692.5" width="60" height="55" as="geometry" />
        </mxCell>
        <mxCell id="r4IXp4akksPEYu1bz3kI-34" value="Construct Return Object" style="text;html=1;align=center;verticalAlign=middle;whiteSpace=wrap;rounded=0;fontColor=#FFFFFF;" vertex="1" parent="1">
          <mxGeometry x="165.05" y="1755" width="99.95" height="30" as="geometry" />
        </mxCell>
        <mxCell id="r4IXp4akksPEYu1bz3kI-35" value="" style="outlineConnect=0;dashed=0;verticalLabelPosition=bottom;verticalAlign=top;align=center;html=1;shape=mxgraph.aws3.lambda_function;fillColor=#F58534;gradientColor=none;" vertex="1" parent="1">
          <mxGeometry x="300.04999999999995" y="1693" width="60" height="55" as="geometry" />
        </mxCell>
        <mxCell id="r4IXp4akksPEYu1bz3kI-36" value="" style="endArrow=classic;html=1;rounded=0;strokeColor=#FFFFFF;exitX=1;exitY=0.5;exitDx=0;exitDy=0;exitPerimeter=0;entryX=0;entryY=0.5;entryDx=0;entryDy=0;entryPerimeter=0;" edge="1" parent="1" source="r4IXp4akksPEYu1bz3kI-33" target="r4IXp4akksPEYu1bz3kI-35">
          <mxGeometry width="50" height="50" relative="1" as="geometry">
            <mxPoint x="-30.450000000000017" y="1730" as="sourcePoint" />
            <mxPoint x="39.54999999999998" y="1788" as="targetPoint" />
          </mxGeometry>
        </mxCell>
        <mxCell id="r4IXp4akksPEYu1bz3kI-37" value="Process Return" style="text;html=1;align=center;verticalAlign=middle;whiteSpace=wrap;rounded=0;fontColor=#FFFFFF;" vertex="1" parent="1">
          <mxGeometry x="295.04999999999995" y="1755" width="89" height="30" as="geometry" />
        </mxCell>
        <mxCell id="r4IXp4akksPEYu1bz3kI-39" value="" style="endArrow=classic;html=1;rounded=0;strokeColor=#FFFFFF;exitX=1;exitY=0.5;exitDx=0;exitDy=0;exitPerimeter=0;entryX=0;entryY=0.5;entryDx=0;entryDy=0;entryPerimeter=0;" edge="1" parent="1" source="r4IXp4akksPEYu1bz3kI-35" target="r4IXp4akksPEYu1bz3kI-41">
          <mxGeometry width="50" height="50" relative="1" as="geometry">
            <mxPoint x="249.54999999999995" y="1731" as="sourcePoint" />
            <mxPoint x="419.54999999999995" y="1720" as="targetPoint" />
          </mxGeometry>
        </mxCell>
        <mxCell id="r4IXp4akksPEYu1bz3kI-41" value="" style="outlineConnect=0;dashed=0;verticalLabelPosition=bottom;verticalAlign=top;align=center;html=1;shape=mxgraph.aws3.lambda_function;fillColor=#F58534;gradientColor=none;" vertex="1" parent="1">
          <mxGeometry x="432.4" y="1693" width="60" height="55" as="geometry" />
        </mxCell>
        <mxCell id="r4IXp4akksPEYu1bz3kI-43" value="Load Return Data" style="text;html=1;align=center;verticalAlign=middle;whiteSpace=wrap;rounded=0;fontColor=#FFFFFF;" vertex="1" parent="1">
          <mxGeometry x="413.04999999999995" y="1755" width="89" height="30" as="geometry" />
        </mxCell>
        <mxCell id="r4IXp4akksPEYu1bz3kI-44" value="" style="outlineConnect=0;dashed=0;verticalLabelPosition=bottom;verticalAlign=top;align=center;html=1;shape=mxgraph.aws3.redshift;fillColor=#2E73B8;gradientColor=none;" vertex="1" parent="1">
          <mxGeometry x="569.05" y="1682.5" width="67.5" height="75" as="geometry" />
        </mxCell>
        <mxCell id="r4IXp4akksPEYu1bz3kI-45" style="edgeStyle=orthogonalEdgeStyle;rounded=0;orthogonalLoop=1;jettySize=auto;html=1;exitX=1;exitY=0.5;exitDx=0;exitDy=0;exitPerimeter=0;entryX=0;entryY=0.5;entryDx=0;entryDy=0;entryPerimeter=0;strokeColor=#FFFFFF;" edge="1" parent="1" source="r4IXp4akksPEYu1bz3kI-41" target="r4IXp4akksPEYu1bz3kI-44">
          <mxGeometry relative="1" as="geometry" />
        </mxCell>
        <mxCell id="r4IXp4akksPEYu1bz3kI-46" value="AWS Redshift" style="text;html=1;align=center;verticalAlign=middle;whiteSpace=wrap;rounded=0;fontColor=#FFFFFF;" vertex="1" parent="1">
          <mxGeometry x="560" y="1762.5" width="89" height="30" as="geometry" />
        </mxCell>
        <mxCell id="r4IXp4akksPEYu1bz3kI-47" value="&lt;span style=&quot;background-color: rgb(0, 0, 0);&quot;&gt;&lt;font color=&quot;#ffffff&quot;&gt;Update&lt;/font&gt;&lt;/span&gt;" style="edgeLabel;html=1;align=center;verticalAlign=middle;resizable=0;points=[];" connectable="0" vertex="1" parent="1">
          <mxGeometry x="295.05417953842624" y="1844.2854144535077" as="geometry" />
        </mxCell>
        <mxCell id="r4IXp4akksPEYu1bz3kI-48" value="&lt;span style=&quot;background-color: rgb(0, 0, 0);&quot;&gt;&lt;font color=&quot;#ffffff&quot;&gt;Update&lt;/font&gt;&lt;/span&gt;" style="edgeLabel;html=1;align=center;verticalAlign=middle;resizable=0;points=[];" connectable="0" vertex="1" parent="1">
          <mxGeometry x="356.5952617536666" y="1845.412390689316" as="geometry" />
        </mxCell>
        <mxCell id="r4IXp4akksPEYu1bz3kI-50" value="&lt;span style=&quot;background-color: rgb(0, 0, 0);&quot;&gt;&lt;font color=&quot;#ffffff&quot;&gt;Delete&lt;/font&gt;&lt;/span&gt;" style="edgeLabel;html=1;align=center;verticalAlign=middle;resizable=0;points=[];" connectable="0" vertex="1" parent="1">
          <mxGeometry x="425.545482163557" y="1845.4077524801764" as="geometry">
            <mxPoint x="-5" y="2" as="offset" />
          </mxGeometry>
        </mxCell>
        <mxCell id="r4IXp4akksPEYu1bz3kI-51" value="&lt;span style=&quot;font-size: 15px;&quot;&gt;&lt;b&gt;6&lt;/b&gt;&lt;/span&gt;" style="ellipse;shape=doubleEllipse;whiteSpace=wrap;html=1;aspect=fixed;" vertex="1" parent="1">
          <mxGeometry x="584.55" y="1635" width="30" height="30" as="geometry" />
        </mxCell>
        <mxCell id="r4IXp4akksPEYu1bz3kI-52" value="" style="edgeStyle=orthogonalEdgeStyle;rounded=0;orthogonalLoop=1;jettySize=auto;html=1;" edge="1" parent="1" source="r4IXp4akksPEYu1bz3kI-154" target="r4IXp4akksPEYu1bz3kI-31">
          <mxGeometry relative="1" as="geometry">
            <mxPoint x="392.5999999999999" y="1545" as="sourcePoint" />
          </mxGeometry>
        </mxCell>
        <mxCell id="r4IXp4akksPEYu1bz3kI-62" style="edgeStyle=orthogonalEdgeStyle;rounded=0;orthogonalLoop=1;jettySize=auto;html=1;exitX=1;exitY=0.5;exitDx=0;exitDy=0;exitPerimeter=0;strokeColor=#FFFFFF;" edge="1" parent="1" source="r4IXp4akksPEYu1bz3kI-163" target="r4IXp4akksPEYu1bz3kI-166">
          <mxGeometry relative="1" as="geometry">
            <mxPoint x="497.54999999999995" y="1539" as="sourcePoint" />
            <mxPoint x="663.5500000000002" y="1539" as="targetPoint" />
          </mxGeometry>
        </mxCell>
        <mxCell id="r4IXp4akksPEYu1bz3kI-64" style="edgeStyle=orthogonalEdgeStyle;rounded=0;orthogonalLoop=1;jettySize=auto;html=1;exitX=0.5;exitY=0;exitDx=0;exitDy=0;exitPerimeter=0;entryX=0.5;entryY=1;entryDx=0;entryDy=0;entryPerimeter=0;strokeColor=#FFFFFF;" edge="1" parent="1" source="r4IXp4akksPEYu1bz3kI-41" target="r4IXp4akksPEYu1bz3kI-163">
          <mxGeometry relative="1" as="geometry">
            <mxPoint x="463.04999999999995" y="1573.5" as="targetPoint" />
          </mxGeometry>
        </mxCell>
        <mxCell id="r4IXp4akksPEYu1bz3kI-68" value="" style="outlineConnect=0;dashed=0;verticalLabelPosition=bottom;verticalAlign=top;align=center;html=1;shape=mxgraph.aws3.dynamo_db;fillColor=#2E73B8;gradientColor=none;" vertex="1" parent="1">
          <mxGeometry x="353.82" y="1935" width="46" height="50" as="geometry" />
        </mxCell>
        <mxCell id="r4IXp4akksPEYu1bz3kI-69" value="Dynamo DB" style="text;html=1;align=center;verticalAlign=middle;whiteSpace=wrap;rounded=0;fontColor=#FFFFFF;" vertex="1" parent="1">
          <mxGeometry x="343.15" y="1975" width="70" height="40" as="geometry" />
        </mxCell>
        <mxCell id="r4IXp4akksPEYu1bz3kI-70" value="Temporary Storage" style="text;html=1;align=center;verticalAlign=middle;whiteSpace=wrap;rounded=0;fontColor=#FFFFFF;" vertex="1" parent="1">
          <mxGeometry x="321.82" y="2006.5" width="110" height="30" as="geometry" />
        </mxCell>
        <mxCell id="r4IXp4akksPEYu1bz3kI-72" value="" style="endArrow=none;dashed=1;html=1;dashPattern=1 3;strokeWidth=2;rounded=0;entryX=0.5;entryY=1;entryDx=0;entryDy=0;entryPerimeter=0;exitX=0.5;exitY=0;exitDx=0;exitDy=0;exitPerimeter=0;strokeColor=#FFFFFF;startArrow=classic;startFill=1;" edge="1" parent="1" source="r4IXp4akksPEYu1bz3kI-68" target="r4IXp4akksPEYu1bz3kI-33">
          <mxGeometry width="50" height="50" relative="1" as="geometry">
            <mxPoint x="475" y="1945" as="sourcePoint" />
            <mxPoint x="525" y="1895" as="targetPoint" />
          </mxGeometry>
        </mxCell>
        <mxCell id="r4IXp4akksPEYu1bz3kI-73" value="" style="endArrow=none;dashed=1;html=1;dashPattern=1 3;strokeWidth=2;rounded=0;entryX=0.5;entryY=1;entryDx=0;entryDy=0;entryPerimeter=0;exitX=0.5;exitY=0;exitDx=0;exitDy=0;exitPerimeter=0;strokeColor=#FFFFFF;startArrow=classic;startFill=1;" edge="1" parent="1" source="r4IXp4akksPEYu1bz3kI-68" target="r4IXp4akksPEYu1bz3kI-35">
          <mxGeometry width="50" height="50" relative="1" as="geometry">
            <mxPoint x="387" y="1945" as="sourcePoint" />
            <mxPoint x="220" y="1758" as="targetPoint" />
          </mxGeometry>
        </mxCell>
        <mxCell id="r4IXp4akksPEYu1bz3kI-75" value="" style="endArrow=none;dashed=1;html=1;dashPattern=1 3;strokeWidth=2;rounded=0;entryX=0.5;entryY=1;entryDx=0;entryDy=0;entryPerimeter=0;exitX=0.5;exitY=0;exitDx=0;exitDy=0;exitPerimeter=0;strokeColor=#FFFFFF;startArrow=classic;startFill=1;" edge="1" parent="1" source="r4IXp4akksPEYu1bz3kI-68" target="r4IXp4akksPEYu1bz3kI-41">
          <mxGeometry width="50" height="50" relative="1" as="geometry">
            <mxPoint x="387" y="1945" as="sourcePoint" />
            <mxPoint x="460" y="1758" as="targetPoint" />
          </mxGeometry>
        </mxCell>
        <mxCell id="r4IXp4akksPEYu1bz3kI-76" value="&lt;span style=&quot;font-size: 15px;&quot;&gt;&lt;b&gt;7&lt;/b&gt;&lt;/span&gt;" style="ellipse;shape=doubleEllipse;whiteSpace=wrap;html=1;aspect=fixed;" vertex="1" parent="1">
          <mxGeometry x="55" y="1705.5" width="30" height="30" as="geometry" />
        </mxCell>
        <mxCell id="r4IXp4akksPEYu1bz3kI-77" value="Return Order" style="text;html=1;align=center;verticalAlign=middle;whiteSpace=wrap;rounded=0;fontColor=#FFFFFF;" vertex="1" parent="1">
          <mxGeometry x="26.149999999999977" y="1735.93" width="89" height="30" as="geometry" />
        </mxCell>
        <mxCell id="r4IXp4akksPEYu1bz3kI-78" value="" style="endArrow=classic;html=1;rounded=0;strokeColor=#FFFFFF;exitX=1;exitY=0.5;exitDx=0;exitDy=0;entryX=0;entryY=0.5;entryDx=0;entryDy=0;entryPerimeter=0;" edge="1" parent="1" source="r4IXp4akksPEYu1bz3kI-76" target="r4IXp4akksPEYu1bz3kI-33">
          <mxGeometry width="50" height="50" relative="1" as="geometry">
            <mxPoint x="250" y="1730" as="sourcePoint" />
            <mxPoint x="310" y="1731" as="targetPoint" />
          </mxGeometry>
        </mxCell>
        <mxCell id="r4IXp4akksPEYu1bz3kI-82" value="&lt;font size=&quot;1&quot; color=&quot;#ffffff&quot;&gt;&lt;b&gt;&lt;u style=&quot;font-size: 24px;&quot;&gt;Return Order Processing&lt;/u&gt;&lt;/b&gt;&lt;/font&gt;" style="text;html=1;align=center;verticalAlign=middle;whiteSpace=wrap;rounded=0;" vertex="1" parent="1">
          <mxGeometry x="221.19999999999993" y="2075" width="293.85" height="30" as="geometry" />
        </mxCell>
        <mxCell id="r4IXp4akksPEYu1bz3kI-84" value="" style="rounded=1;whiteSpace=wrap;html=1;fillColor=none;strokeColor=#FFFFFF;" vertex="1" parent="1">
          <mxGeometry x="293.77" y="2630" width="116.35" height="121.5" as="geometry" />
        </mxCell>
        <mxCell id="r4IXp4akksPEYu1bz3kI-91" value="" style="sketch=0;points=[[0,0,0],[0.25,0,0],[0.5,0,0],[0.75,0,0],[1,0,0],[0,1,0],[0.25,1,0],[0.5,1,0],[0.75,1,0],[1,1,0],[0,0.25,0],[0,0.5,0],[0,0.75,0],[1,0.25,0],[1,0.5,0],[1,0.75,0]];outlineConnect=0;fontColor=#232F3E;fillColor=#E7157B;strokeColor=#ffffff;dashed=0;verticalLabelPosition=bottom;verticalAlign=top;align=center;html=1;fontSize=12;fontStyle=0;aspect=fixed;shape=mxgraph.aws4.resourceIcon;resIcon=mxgraph.aws4.managed_workflows_for_apache_airflow;" vertex="1" parent="1">
          <mxGeometry x="157.54999999999998" y="2375" width="32.5" height="32.5" as="geometry" />
        </mxCell>
        <mxCell id="r4IXp4akksPEYu1bz3kI-92" value="&lt;font color=&quot;#ffffff&quot;&gt;AWS Managed Workflow Airflow&lt;/font&gt;" style="text;html=1;align=center;verticalAlign=middle;whiteSpace=wrap;rounded=0;" vertex="1" parent="1">
          <mxGeometry x="175.79999999999998" y="2375" width="210" height="30" as="geometry" />
        </mxCell>
        <mxCell id="r4IXp4akksPEYu1bz3kI-93" style="edgeStyle=orthogonalEdgeStyle;rounded=0;orthogonalLoop=1;jettySize=auto;html=1;exitX=0;exitY=0.5;exitDx=0;exitDy=0;" edge="1" parent="1" source="r4IXp4akksPEYu1bz3kI-92" target="r4IXp4akksPEYu1bz3kI-92">
          <mxGeometry relative="1" as="geometry" />
        </mxCell>
        <mxCell id="r4IXp4akksPEYu1bz3kI-94" value="" style="outlineConnect=0;dashed=0;verticalLabelPosition=bottom;verticalAlign=top;align=center;html=1;shape=mxgraph.aws3.lambda_function;fillColor=#F58534;gradientColor=none;" vertex="1" parent="1">
          <mxGeometry x="179.54999999999998" y="2422.5" width="60" height="55" as="geometry" />
        </mxCell>
        <mxCell id="r4IXp4akksPEYu1bz3kI-95" value="Update WH" style="text;html=1;align=center;verticalAlign=middle;whiteSpace=wrap;rounded=0;fontColor=#FFFFFF;" vertex="1" parent="1">
          <mxGeometry x="165.04999999999998" y="2485" width="89" height="30" as="geometry" />
        </mxCell>
        <mxCell id="r4IXp4akksPEYu1bz3kI-105" value="" style="outlineConnect=0;dashed=0;verticalLabelPosition=bottom;verticalAlign=top;align=center;html=1;shape=mxgraph.aws3.redshift;fillColor=#2E73B8;gradientColor=none;" vertex="1" parent="1">
          <mxGeometry x="175.79999999999998" y="2640" width="67.5" height="75" as="geometry" />
        </mxCell>
        <mxCell id="r4IXp4akksPEYu1bz3kI-107" value="AWS Redshift" style="text;html=1;align=center;verticalAlign=middle;whiteSpace=wrap;rounded=0;fontColor=#FFFFFF;" vertex="1" parent="1">
          <mxGeometry x="165.99999999999994" y="2715" width="89" height="30" as="geometry" />
        </mxCell>
        <mxCell id="r4IXp4akksPEYu1bz3kI-108" value="&lt;span style=&quot;background-color: rgb(0, 0, 0);&quot;&gt;&lt;font color=&quot;#ffffff&quot;&gt;Update&lt;/font&gt;&lt;/span&gt;" style="edgeLabel;html=1;align=center;verticalAlign=middle;resizable=0;points=[];" connectable="0" vertex="1" parent="1">
          <mxGeometry x="215.40417953842623" y="2559.9954144535077" as="geometry" />
        </mxCell>
        <mxCell id="r4IXp4akksPEYu1bz3kI-111" value="&lt;span style=&quot;background-color: rgb(0, 0, 0);&quot;&gt;&lt;font color=&quot;#ffffff&quot;&gt;Delete&lt;/font&gt;&lt;/span&gt;" style="edgeLabel;html=1;align=center;verticalAlign=middle;resizable=0;points=[];" connectable="0" vertex="1" parent="1">
          <mxGeometry x="295.045482163557" y="2559.9977524801766" as="geometry" />
        </mxCell>
        <mxCell id="r4IXp4akksPEYu1bz3kI-113" value="" style="edgeStyle=orthogonalEdgeStyle;rounded=0;orthogonalLoop=1;jettySize=auto;html=1;" edge="1" parent="1" source="r4IXp4akksPEYu1bz3kI-115" target="r4IXp4akksPEYu1bz3kI-92">
          <mxGeometry relative="1" as="geometry" />
        </mxCell>
        <mxCell id="r4IXp4akksPEYu1bz3kI-114" style="edgeStyle=orthogonalEdgeStyle;rounded=0;orthogonalLoop=1;jettySize=auto;html=1;exitX=0;exitY=0.48;exitDx=0;exitDy=0;exitPerimeter=0;strokeColor=#FFFFFF;" edge="1" parent="1" source="r4IXp4akksPEYu1bz3kI-115" target="r4IXp4akksPEYu1bz3kI-121">
          <mxGeometry relative="1" as="geometry" />
        </mxCell>
        <mxCell id="r4IXp4akksPEYu1bz3kI-115" value="" style="outlineConnect=0;dashed=0;verticalLabelPosition=bottom;verticalAlign=top;align=center;html=1;shape=mxgraph.aws3.ses;fillColor=#D9A741;gradientColor=none;" vertex="1" parent="1">
          <mxGeometry x="179.04999999999995" y="2230" width="60" height="60" as="geometry" />
        </mxCell>
        <mxCell id="r4IXp4akksPEYu1bz3kI-116" value="" style="endArrow=classic;dashed=1;html=1;dashPattern=1 3;strokeWidth=2;rounded=0;entryX=0.5;entryY=1;entryDx=0;entryDy=0;entryPerimeter=0;exitX=0.5;exitY=0;exitDx=0;exitDy=0;exitPerimeter=0;strokeColor=#FFFFFF;startArrow=none;startFill=0;endFill=1;" edge="1" parent="1" source="r4IXp4akksPEYu1bz3kI-94" target="r4IXp4akksPEYu1bz3kI-115">
          <mxGeometry width="50" height="50" relative="1" as="geometry">
            <mxPoint x="330.04999999999995" y="2423" as="sourcePoint" />
            <mxPoint x="402.54999999999995" y="2715" as="targetPoint" />
          </mxGeometry>
        </mxCell>
        <mxCell id="r4IXp4akksPEYu1bz3kI-117" value="&lt;span style=&quot;background-color: rgb(0, 0, 0);&quot;&gt;&lt;font color=&quot;#ffffff&quot;&gt;Order Status&lt;/font&gt;&lt;/span&gt;" style="edgeLabel;html=1;align=center;verticalAlign=middle;resizable=0;points=[];" connectable="0" vertex="1" parent="r4IXp4akksPEYu1bz3kI-116">
          <mxGeometry x="-0.1543" relative="1" as="geometry">
            <mxPoint x="1" y="-37" as="offset" />
          </mxGeometry>
        </mxCell>
        <mxCell id="r4IXp4akksPEYu1bz3kI-120" value="Amazon SES" style="text;html=1;align=center;verticalAlign=middle;whiteSpace=wrap;rounded=0;fontColor=#FFFFFF;" vertex="1" parent="1">
          <mxGeometry x="170.89999999999995" y="2200" width="89" height="30" as="geometry" />
        </mxCell>
        <mxCell id="r4IXp4akksPEYu1bz3kI-121" value="" style="sketch=0;pointerEvents=1;shadow=0;dashed=0;html=1;strokeColor=none;fillColor=#505050;labelPosition=center;verticalLabelPosition=bottom;verticalAlign=top;outlineConnect=0;align=center;shape=mxgraph.office.users.credentials;" vertex="1" parent="1">
          <mxGeometry x="88.99999999999994" y="2230" width="56" height="58" as="geometry" />
        </mxCell>
        <mxCell id="r4IXp4akksPEYu1bz3kI-122" value="Customer" style="text;html=1;align=center;verticalAlign=middle;whiteSpace=wrap;rounded=0;fontColor=#FFFFFF;" vertex="1" parent="1">
          <mxGeometry x="76.04999999999995" y="2288" width="89" height="30" as="geometry" />
        </mxCell>
        <mxCell id="r4IXp4akksPEYu1bz3kI-123" style="edgeStyle=orthogonalEdgeStyle;rounded=0;orthogonalLoop=1;jettySize=auto;html=1;exitX=1;exitY=0.5;exitDx=0;exitDy=0;exitPerimeter=0;strokeColor=#FFFFFF;" edge="1" parent="1" source="r4IXp4akksPEYu1bz3kI-124" target="r4IXp4akksPEYu1bz3kI-127">
          <mxGeometry relative="1" as="geometry" />
        </mxCell>
        <mxCell id="r4IXp4akksPEYu1bz3kI-124" value="" style="sketch=0;points=[[0,0,0],[0.25,0,0],[0.5,0,0],[0.75,0,0],[1,0,0],[0,1,0],[0.25,1,0],[0.5,1,0],[0.75,1,0],[1,1,0],[0,0.25,0],[0,0.5,0],[0,0.75,0],[1,0.25,0],[1,0.5,0],[1,0.75,0]];outlineConnect=0;fontColor=#232F3E;fillColor=#E7157B;strokeColor=#ffffff;dashed=0;verticalLabelPosition=bottom;verticalAlign=top;align=center;html=1;fontSize=12;fontStyle=0;aspect=fixed;shape=mxgraph.aws4.resourceIcon;resIcon=mxgraph.aws4.sns;" vertex="1" parent="1">
          <mxGeometry x="274.15" y="2225.5" width="69" height="69" as="geometry" />
        </mxCell>
        <mxCell id="r4IXp4akksPEYu1bz3kI-125" style="edgeStyle=orthogonalEdgeStyle;rounded=0;orthogonalLoop=1;jettySize=auto;html=1;exitX=0.855;exitY=0.145;exitDx=0;exitDy=0;exitPerimeter=0;entryX=0.5;entryY=1;entryDx=0;entryDy=0;entryPerimeter=0;strokeColor=#FFFFFF;" edge="1" parent="1" source="r4IXp4akksPEYu1bz3kI-94" target="r4IXp4akksPEYu1bz3kI-124">
          <mxGeometry relative="1" as="geometry">
            <mxPoint x="567.05" y="2422.5" as="sourcePoint" />
            <Array as="points">
              <mxPoint x="309" y="2431" />
            </Array>
          </mxGeometry>
        </mxCell>
        <mxCell id="r4IXp4akksPEYu1bz3kI-126" value="&lt;font color=&quot;#ffffff&quot;&gt;Aws SNS&lt;/font&gt;" style="text;html=1;align=center;verticalAlign=middle;whiteSpace=wrap;rounded=0;" vertex="1" parent="1">
          <mxGeometry x="399.81999999999994" y="2200" width="60" height="30" as="geometry" />
        </mxCell>
        <mxCell id="r4IXp4akksPEYu1bz3kI-127" value="" style="verticalLabelPosition=bottom;aspect=fixed;html=1;shape=mxgraph.salesforce.social_studio2;" vertex="1" parent="1">
          <mxGeometry x="398.15" y="2230" width="60" height="60" as="geometry" />
        </mxCell>
        <mxCell id="r4IXp4akksPEYu1bz3kI-128" value="Notify S&lt;span style=&quot;background-color: initial;&quot;&gt;hipping&lt;/span&gt;" style="text;html=1;align=center;verticalAlign=middle;whiteSpace=wrap;rounded=0;fontColor=#FFFFFF;" vertex="1" parent="1">
          <mxGeometry x="340.54999999999995" y="2299" width="98" height="30" as="geometry" />
        </mxCell>
        <mxCell id="r4IXp4akksPEYu1bz3kI-129" value="" style="outlineConnect=0;dashed=0;verticalLabelPosition=bottom;verticalAlign=top;align=center;html=1;shape=mxgraph.aws3.dynamo_db;fillColor=#2E73B8;gradientColor=none;" vertex="1" parent="1">
          <mxGeometry x="328.94" y="2650" width="46" height="50" as="geometry" />
        </mxCell>
        <mxCell id="r4IXp4akksPEYu1bz3kI-130" value="Dynamo DB" style="text;html=1;align=center;verticalAlign=middle;whiteSpace=wrap;rounded=0;fontColor=#FFFFFF;" vertex="1" parent="1">
          <mxGeometry x="318.27" y="2690" width="70" height="40" as="geometry" />
        </mxCell>
        <mxCell id="r4IXp4akksPEYu1bz3kI-131" value="Temporary Storage" style="text;html=1;align=center;verticalAlign=middle;whiteSpace=wrap;rounded=0;fontColor=#FFFFFF;" vertex="1" parent="1">
          <mxGeometry x="296.94" y="2721.5" width="110" height="30" as="geometry" />
        </mxCell>
        <mxCell id="r4IXp4akksPEYu1bz3kI-132" style="edgeStyle=orthogonalEdgeStyle;rounded=0;orthogonalLoop=1;jettySize=auto;html=1;exitX=1;exitY=0.25;exitDx=0;exitDy=0;entryX=1.026;entryY=0.362;entryDx=0;entryDy=0;entryPerimeter=0;" edge="1" parent="1" source="r4IXp4akksPEYu1bz3kI-84" target="r4IXp4akksPEYu1bz3kI-84">
          <mxGeometry relative="1" as="geometry" />
        </mxCell>
        <mxCell id="r4IXp4akksPEYu1bz3kI-133" value="" style="endArrow=none;dashed=1;html=1;dashPattern=1 3;strokeWidth=2;rounded=0;entryX=0.5;entryY=1;entryDx=0;entryDy=0;entryPerimeter=0;exitX=0.5;exitY=0;exitDx=0;exitDy=0;exitPerimeter=0;strokeColor=#FFFFFF;startArrow=classic;startFill=1;" edge="1" parent="1" source="r4IXp4akksPEYu1bz3kI-105" target="r4IXp4akksPEYu1bz3kI-94">
          <mxGeometry width="50" height="50" relative="1" as="geometry">
            <mxPoint x="475" y="2675" as="sourcePoint" />
            <mxPoint x="525" y="2625" as="targetPoint" />
          </mxGeometry>
        </mxCell>
        <mxCell id="r4IXp4akksPEYu1bz3kI-136" value="" style="endArrow=none;dashed=1;html=1;dashPattern=1 3;strokeWidth=2;rounded=0;entryX=0.855;entryY=0.855;entryDx=0;entryDy=0;entryPerimeter=0;exitX=0.5;exitY=0;exitDx=0;exitDy=0;exitPerimeter=0;strokeColor=#FFFFFF;startArrow=classic;startFill=1;" edge="1" parent="1" source="r4IXp4akksPEYu1bz3kI-129" target="r4IXp4akksPEYu1bz3kI-94">
          <mxGeometry width="50" height="50" relative="1" as="geometry">
            <mxPoint x="387" y="2675" as="sourcePoint" />
            <mxPoint x="460" y="2488" as="targetPoint" />
          </mxGeometry>
        </mxCell>
        <mxCell id="r4IXp4akksPEYu1bz3kI-137" value="&lt;span style=&quot;font-size: 15px;&quot;&gt;&lt;b&gt;8&lt;/b&gt;&lt;/span&gt;" style="ellipse;shape=doubleEllipse;whiteSpace=wrap;html=1;aspect=fixed;" vertex="1" parent="1">
          <mxGeometry x="55" y="2435.5" width="30" height="30" as="geometry" />
        </mxCell>
        <mxCell id="r4IXp4akksPEYu1bz3kI-138" value="Update Order" style="text;html=1;align=center;verticalAlign=middle;whiteSpace=wrap;rounded=0;fontColor=#FFFFFF;" vertex="1" parent="1">
          <mxGeometry x="26.149999999999977" y="2465.9300000000003" width="89" height="30" as="geometry" />
        </mxCell>
        <mxCell id="r4IXp4akksPEYu1bz3kI-139" value="" style="endArrow=classic;html=1;rounded=0;strokeColor=#FFFFFF;exitX=1;exitY=0.5;exitDx=0;exitDy=0;entryX=0;entryY=0.5;entryDx=0;entryDy=0;entryPerimeter=0;" edge="1" parent="1" source="r4IXp4akksPEYu1bz3kI-137" target="r4IXp4akksPEYu1bz3kI-94">
          <mxGeometry width="50" height="50" relative="1" as="geometry">
            <mxPoint x="250" y="2460" as="sourcePoint" />
            <mxPoint x="310" y="2461" as="targetPoint" />
          </mxGeometry>
        </mxCell>
        <mxCell id="r4IXp4akksPEYu1bz3kI-143" value="&lt;font size=&quot;1&quot; color=&quot;#ffffff&quot;&gt;&lt;b&gt;&lt;u style=&quot;font-size: 24px;&quot;&gt;Update Order Processing&lt;/u&gt;&lt;/b&gt;&lt;/font&gt;" style="text;html=1;align=center;verticalAlign=middle;whiteSpace=wrap;rounded=0;" vertex="1" parent="1">
          <mxGeometry x="119.29999999999993" y="2780" width="293.85" height="30" as="geometry" />
        </mxCell>
        <mxCell id="r4IXp4akksPEYu1bz3kI-145" style="edgeStyle=orthogonalEdgeStyle;rounded=0;orthogonalLoop=1;jettySize=auto;html=1;exitX=0.5;exitY=1;exitDx=0;exitDy=0;exitPerimeter=0;entryX=0.855;entryY=0.855;entryDx=0;entryDy=0;entryPerimeter=0;" edge="1" parent="1" source="r4IXp4akksPEYu1bz3kI-90" target="r4IXp4akksPEYu1bz3kI-94">
          <mxGeometry relative="1" as="geometry" />
        </mxCell>
        <mxCell id="r4IXp4akksPEYu1bz3kI-150" value="&lt;span style=&quot;background-color: rgb(0, 0, 0);&quot;&gt;&lt;font color=&quot;#ffffff&quot;&gt;If Packing Completed&lt;/font&gt;&lt;/span&gt;" style="edgeLabel;html=1;align=center;verticalAlign=middle;resizable=0;points=[];" connectable="0" vertex="1" parent="1">
          <mxGeometry x="304.99548216355697" y="2429.9977524801766" as="geometry" />
        </mxCell>
        <mxCell id="r4IXp4akksPEYu1bz3kI-155" value="" style="edgeStyle=orthogonalEdgeStyle;rounded=0;orthogonalLoop=1;jettySize=auto;html=1;" edge="1" parent="1" target="r4IXp4akksPEYu1bz3kI-154">
          <mxGeometry relative="1" as="geometry">
            <mxPoint x="392.5999999999999" y="1545" as="sourcePoint" />
            <mxPoint x="285" y="1648" as="targetPoint" />
          </mxGeometry>
        </mxCell>
        <mxCell id="r4IXp4akksPEYu1bz3kI-154" value="" style="sketch=0;points=[[0,0,0],[0.25,0,0],[0.5,0,0],[0.75,0,0],[1,0,0],[0,1,0],[0.25,1,0],[0.5,1,0],[0.75,1,0],[1,1,0],[0,0.25,0],[0,0.5,0],[0,0.75,0],[1,0.25,0],[1,0.5,0],[1,0.75,0]];outlineConnect=0;fontColor=#232F3E;fillColor=#01A88D;strokeColor=#ffffff;dashed=0;verticalLabelPosition=bottom;verticalAlign=top;align=center;html=1;fontSize=12;fontStyle=0;aspect=fixed;shape=mxgraph.aws4.resourceIcon;resIcon=mxgraph.aws4.sagemaker;" vertex="1" parent="1">
          <mxGeometry x="307.54999999999995" y="1540" width="45" height="45" as="geometry" />
        </mxCell>
        <mxCell id="r4IXp4akksPEYu1bz3kI-157" value="" style="endArrow=classic;html=1;rounded=0;strokeColor=#FFFFFF;exitX=0.5;exitY=0;exitDx=0;exitDy=0;exitPerimeter=0;entryX=0.5;entryY=1;entryDx=0;entryDy=0;entryPerimeter=0;" edge="1" parent="1" source="r4IXp4akksPEYu1bz3kI-35" target="r4IXp4akksPEYu1bz3kI-154">
          <mxGeometry width="50" height="50" relative="1" as="geometry">
            <mxPoint x="370" y="1731" as="sourcePoint" />
            <mxPoint x="430" y="1730" as="targetPoint" />
          </mxGeometry>
        </mxCell>
        <mxCell id="r4IXp4akksPEYu1bz3kI-159" value="&lt;span style=&quot;background-color: rgb(0, 0, 0);&quot;&gt;&lt;font color=&quot;#ffffff&quot;&gt;Custom LLM model to Approve Returns&lt;/font&gt;&lt;/span&gt;" style="edgeLabel;html=1;align=center;verticalAlign=middle;resizable=0;points=[];" connectable="0" vertex="1" parent="1">
          <mxGeometry x="315.00417953842623" y="1854.2854144535077" as="geometry">
            <mxPoint x="14" y="-244" as="offset" />
          </mxGeometry>
        </mxCell>
        <mxCell id="r4IXp4akksPEYu1bz3kI-163" value="" style="outlineConnect=0;dashed=0;verticalLabelPosition=bottom;verticalAlign=top;align=center;html=1;shape=mxgraph.aws3.ses;fillColor=#D9A741;gradientColor=none;" vertex="1" parent="1">
          <mxGeometry x="432.4" y="1520" width="60" height="60" as="geometry" />
        </mxCell>
        <mxCell id="r4IXp4akksPEYu1bz3kI-166" value="" style="sketch=0;pointerEvents=1;shadow=0;dashed=0;html=1;strokeColor=none;fillColor=#505050;labelPosition=center;verticalLabelPosition=bottom;verticalAlign=top;outlineConnect=0;align=center;shape=mxgraph.office.users.credentials;" vertex="1" parent="1">
          <mxGeometry x="571.55" y="1521" width="56" height="58" as="geometry" />
        </mxCell>
        <mxCell id="r4IXp4akksPEYu1bz3kI-167" value="Amazon SES" style="text;html=1;align=center;verticalAlign=middle;whiteSpace=wrap;rounded=0;fontColor=#FFFFFF;" vertex="1" parent="1">
          <mxGeometry x="425.5499999999999" y="1491" width="89" height="30" as="geometry" />
        </mxCell>
        <mxCell id="r4IXp4akksPEYu1bz3kI-169" value="Customer" style="text;html=1;align=center;verticalAlign=middle;whiteSpace=wrap;rounded=0;fontColor=#FFFFFF;" vertex="1" parent="1">
          <mxGeometry x="555.05" y="1580" width="89" height="30" as="geometry" />
        </mxCell>
        <mxCell id="r4IXp4akksPEYu1bz3kI-170" value="&lt;span style=&quot;background-color: rgb(0, 0, 0);&quot;&gt;&lt;font color=&quot;#ffffff&quot;&gt;Return Status&lt;/font&gt;&lt;/span&gt;" style="edgeLabel;html=1;align=center;verticalAlign=middle;resizable=0;points=[];" connectable="0" vertex="1" parent="1">
          <mxGeometry x="462.39868074986464" y="1610.0003987141467" as="geometry">
            <mxPoint x="2" y="-4" as="offset" />
          </mxGeometry>
        </mxCell>
      </root>
    </mxGraphModel>
  </diagram>
</mxfile>
